<svg version="1.2" preserveAspectRatio="xMidYMid meet" viewBox="555.2665916760405 229.3919980176 325.5793025871766 345.059997018" zoomAndPan="magnify" xmlns:xlink="http://www.w3.org/1999/xlink" xmlns="http://www.w3.org/2000/svg" style="max-height: 500px" width="325.5793025871766" height="345.059997018"><defs><clipPath id="15217bea8d"><path d="M 570 243 L 845.949219 243 L 845.949219 567 L 570 567 Z M 570 243"/></clipPath><clipPath id="96545403d9"><path d="M 767.511719 464.457031 L 870.261719 464.457031 L 870.261719 567.207031 L 767.511719 567.207031 Z M 767.511719 464.457031"/></clipPath></defs><g id="00e9ccac12"><g clip-path="url(#15217bea8d)" clip-rule="nonzero"><path d="M 707.984375 354.761719 C 632.179688 354.761719 581.257812 328.753906 581.257812 304.460938 C 581.257812 280.171875 632.179688 254.164062 707.984375 254.164062 C 783.789062 254.164062 834.710938 280.171875 834.710938 304.460938 C 834.710938 328.753906 783.789062 354.761719 707.984375 354.761719 Z M 834.710938 380.457031 C 834.710938 404.746094 783.789062 430.757812 707.984375 430.757812 C 632.179688 430.757812 581.257812 404.746094 581.257812 380.457031 C 581.257812 378.777344 581.507812 377.089844 581.972656 375.40625 C 589.078125 382.574219 599.28125 389.066406 612.277344 394.558594 C 637.933594 405.390625 671.921875 411.355469 707.984375 411.355469 C 744.050781 411.355469 778.039062 405.390625 803.695312 394.558594 C 816.691406 389.066406 826.886719 382.574219 834 375.40625 C 834.464844 377.089844 834.710938 378.777344 834.710938 380.457031 Z M 707.984375 510.210938 C 632.179688 510.210938 581.257812 484.203125 581.257812 459.910156 C 581.257812 457.367188 581.796875 454.8125 582.855469 452.273438 C 589.917969 459.097656 599.808594 465.285156 612.277344 470.550781 C 637.933594 481.382812 671.921875 487.351562 707.984375 487.351562 C 744.050781 487.351562 778.039062 481.382812 803.695312 470.550781 C 816.160156 465.285156 826.050781 459.097656 833.117188 452.273438 C 834.175781 454.8125 834.710938 457.367188 834.710938 459.910156 C 834.710938 484.203125 783.789062 510.210938 707.984375 510.210938 Z M 811.265625 525.804688 L 801.683594 529.226562 C 798.945312 530.203125 795.933594 528.777344 794.957031 526.035156 C 793.980469 523.300781 795.40625 520.285156 798.144531 519.308594 L 807.726562 515.886719 C 810.464844 514.910156 813.476562 516.335938 814.457031 519.074219 C 815.429688 521.8125 814.007812 524.828125 811.265625 525.804688 Z M 811.265625 444.734375 L 801.683594 448.152344 C 798.945312 449.132812 795.933594 447.703125 794.957031 444.964844 C 793.980469 442.226562 795.40625 439.214844 798.144531 438.238281 L 807.726562 434.816406 C 810.464844 433.839844 813.476562 435.265625 814.457031 438.003906 C 815.429688 440.738281 814.007812 443.753906 811.265625 444.734375 Z M 798.144531 362.242188 L 807.726562 358.824219 C 810.464844 357.84375 813.476562 359.273438 814.457031 362.007812 C 815.429688 364.746094 814.007812 367.757812 811.265625 368.738281 L 801.683594 372.160156 C 798.945312 373.136719 795.933594 371.710938 794.957031 368.972656 C 793.980469 366.230469 795.40625 363.222656 798.144531 362.242188 Z M 803.695312 259.832031 C 778.039062 249 744.050781 243.03125 707.984375 243.03125 C 671.921875 243.03125 637.933594 249 612.277344 259.832031 C 585.097656 271.3125 570.128906 287.160156 570.128906 304.460938 L 570.128906 349.925781 C 570.128906 355.175781 571.515625 360.289062 574.195312 365.191406 C 571.496094 370.125 570.128906 375.242188 570.128906 380.457031 L 570.128906 425.921875 C 570.128906 431.792969 571.855469 437.496094 575.195312 442.917969 C 571.835938 448.382812 570.128906 454.09375 570.128906 459.910156 L 570.128906 505.378906 C 570.128906 522.679688 585.097656 538.53125 612.277344 550.007812 C 637.933594 560.839844 671.921875 566.808594 707.984375 566.808594 C 744.050781 566.808594 778.039062 560.839844 803.695312 550.007812 C 830.871094 538.53125 845.839844 522.679688 845.839844 505.378906 L 845.839844 459.910156 C 845.839844 454.09375 844.132812 448.378906 840.773438 442.917969 C 844.113281 437.496094 845.839844 431.792969 845.839844 425.921875 L 845.839844 380.457031 C 845.839844 375.242188 844.472656 370.121094 841.777344 365.191406 C 844.457031 360.289062 845.839844 355.175781 845.839844 349.925781 L 845.839844 304.460938 C 845.839844 287.160156 830.871094 271.3125 803.695312 259.832031" style="stroke:none;fill-rule:nonzero;fill:#4caf50;fill-opacity:1;"/></g><g clip-path="url(#96545403d9)" clip-rule="nonzero"><path d="M 870.261719 515.832031 C 870.261719 544.207031 847.257812 567.207031 818.886719 567.207031 C 790.515625 567.207031 767.511719 544.207031 767.511719 515.832031 C 767.511719 487.460938 790.515625 464.457031 818.886719 464.457031 C 847.257812 464.457031 870.261719 487.460938 870.261719 515.832031 Z M 870.261719 515.832031" style="stroke:none;fill-rule:nonzero;fill:#c8e6c9;fill-opacity:1;"/></g><path d="M 846.078125 491.652344 L 811.222656 526.550781 L 796.832031 512.203125 L 789.566406 519.464844 L 811.230469 541.078125 L 853.347656 498.917969 Z M 846.078125 491.652344" style="stroke:none;fill-rule:nonzero;fill:#4caf50;fill-opacity:1;"/></g></svg>