<svg version="1.2" preserveAspectRatio="xMidYMid meet" viewBox="552.0269966254218 239.11199793359998 335.2980877390326 336.95999708799997" zoomAndPan="magnify" xmlns:xlink="http://www.w3.org/1999/xlink" xmlns="http://www.w3.org/2000/svg" style="max-height: 500px" width="335.2980877390326" height="336.95999708799997"><g id="0ba7facc92"><path d="M 720 243 C 809.644531 243 882 315.757812 882 405 C 882 494.644531 809.644531 567 720 567 C 630.757812 567 558 494.644531 558 405 C 558 315.757812 630.757812 243 720 243 Z M 720 444.394531 L 674.574219 489.820312 C 649.25 515.546875 609.855469 476.152344 635.582031 450.425781 L 681.007812 405 L 635.582031 359.574219 C 609.855469 334.25 649.25 294.855469 674.574219 320.582031 L 720 366.007812 L 765.425781 320.582031 C 791.152344 294.855469 830.546875 334.25 804.820312 359.574219 L 759.394531 405 L 804.820312 450.425781 C 830.546875 476.152344 791.152344 515.546875 765.425781 489.820312 Z M 720 444.394531" style="stroke:none;fill-rule:evenodd;fill:#ff3131;fill-opacity:1;"/></g></svg>