<svg version="1.2" preserveAspectRatio="xMidYMid meet" viewBox="593.7967154105736 221.2919980876 255.92800899887516 375.83999675200005" zoomAndPan="magnify" xmlns:xlink="http://www.w3.org/1999/xlink" xmlns="http://www.w3.org/2000/svg" style="max-height: 500px" width="255.92800899887516" height="375.83999675200005"><defs><clipPath id="e4fe0f7722"><path d="M 600 224.25 L 840 224.25 L 840 584.25 L 600 584.25 Z M 600 224.25"/></clipPath><clipPath id="0bf36dc89f"><path d="M 840 229.5 L 840 578.972656 C 840 581.871094 837.648438 584.222656 834.75 584.222656 L 605.25 584.222656 C 602.351562 584.222656 600 581.871094 600 578.972656 L 600 229.5 C 600 226.601562 602.351562 224.25 605.25 224.25 L 834.75 224.25 C 837.648438 224.25 840 226.601562 840 229.5 Z M 840 229.5"/></clipPath><clipPath id="6108c53537"><path d="M 600 224.261719 L 840 224.261719 L 840 584.25 L 600 584.25 Z M 600 224.261719"/></clipPath><clipPath id="916390fec6"><path d="M 840 229.511719 L 840 578.988281 C 840 581.886719 837.648438 584.238281 834.75 584.238281 L 605.25 584.238281 C 602.351562 584.238281 600 581.886719 600 578.988281 L 600 229.511719 C 600 226.613281 602.351562 224.261719 605.25 224.261719 L 834.75 224.261719 C 837.648438 224.261719 840 226.613281 840 229.511719 Z M 840 229.511719"/></clipPath><clipPath id="d451fa8c76"><path d="M 612 260.25 L 828 260.25 L 828 572.25 L 612 572.25 Z M 612 260.25"/></clipPath><clipPath id="27e2c4ce1f"><path d="M 617.25 260.25 L 822.75 260.25 C 824.140625 260.25 825.476562 260.804688 826.460938 261.789062 C 827.445312 262.773438 828 264.109375 828 265.5 L 828 567 C 828 568.390625 827.445312 569.726562 826.460938 570.710938 C 825.476562 571.695312 824.140625 572.25 822.75 572.25 L 617.25 572.25 C 615.859375 572.25 614.523438 571.695312 613.539062 570.710938 C 612.554688 569.726562 612 568.390625 612 567 L 612 265.5 C 612 264.109375 612.554688 262.773438 613.539062 261.789062 C 614.523438 260.804688 615.859375 260.25 617.25 260.25 Z M 617.25 260.25"/></clipPath><clipPath id="9e797ff55d"><path d="M 624 272.25 L 816 272.25 L 816 344.25 L 624 344.25 Z M 624 272.25"/></clipPath><clipPath id="d2282d4723"><path d="M 634.5 272.25 L 805.5 272.25 C 811.300781 272.25 816 276.949219 816 282.75 L 816 333.75 C 816 339.550781 811.300781 344.25 805.5 344.25 L 634.5 344.25 C 628.699219 344.25 624 339.550781 624 333.75 L 624 282.75 C 624 276.949219 628.699219 272.25 634.5 272.25 Z M 634.5 272.25"/></clipPath><clipPath id="d8c6779178"><path d="M 624 380.253906 L 684 380.253906 L 684 428.253906 L 624 428.253906 Z M 624 380.253906"/></clipPath><clipPath id="4b809cb773"><path d="M 690 380.253906 L 750 380.253906 L 750 428.253906 L 690 428.253906 Z M 690 380.253906"/></clipPath><clipPath id="540f3b2968"><path d="M 756 380.253906 L 816 380.253906 L 816 428.253906 L 756 428.253906 Z M 756 380.253906"/></clipPath><clipPath id="ee674de52e"><path d="M 624 440.25 L 684 440.25 L 684 488.25 L 624 488.25 Z M 624 440.25"/></clipPath><clipPath id="40361081e0"><path d="M 690 440.25 L 750 440.25 L 750 488.25 L 690 488.25 Z M 690 440.25"/></clipPath><clipPath id="f9e8515875"><path d="M 756 440.25 L 816 440.25 L 816 488.25 L 756 488.25 Z M 756 440.25"/></clipPath><clipPath id="bc6e21a120"><path d="M 624 500.25 L 684 500.25 L 684 548.25 L 624 548.25 Z M 624 500.25"/></clipPath><clipPath id="4d0cf756a5"><path d="M 690 500.25 L 750 500.25 L 750 548.25 L 690 548.25 Z M 690 500.25"/></clipPath><clipPath id="08f2a0e906"><path d="M 756 500.25 L 816 500.25 L 816 548.25 L 756 548.25 Z M 756 500.25"/></clipPath><clipPath id="2976557684"><path d="M 708 350.25 L 732 350.25 L 732 374.25 L 708 374.25 Z M 708 350.25"/></clipPath><clipPath id="5145819c7c"><path d="M 720 350.25 C 713.371094 350.25 708 355.625 708 362.25 C 708 368.878906 713.371094 374.25 720 374.25 C 726.628906 374.25 732 368.878906 732 362.25 C 732 355.625 726.628906 350.25 720 350.25 Z M 720 350.25"/></clipPath><clipPath id="77df6197d6"><path d="M 741 353.25 L 759 353.25 L 759 371.25 L 741 371.25 Z M 741 353.25"/></clipPath><clipPath id="0b1f0cd219"><path d="M 750 353.25 C 745.03125 353.25 741 357.28125 741 362.25 C 741 367.222656 745.03125 371.25 750 371.25 C 754.96875 371.25 759 367.222656 759 362.25 C 759 357.28125 754.96875 353.25 750 353.25 Z M 750 353.25"/></clipPath><clipPath id="98a21d8e0a"><path d="M 681 353.25 L 699 353.25 L 699 371.25 L 681 371.25 Z M 681 353.25"/></clipPath><clipPath id="149b0c9b62"><path d="M 690 353.25 C 685.03125 353.25 681 357.28125 681 362.25 C 681 367.222656 685.03125 371.25 690 371.25 C 694.96875 371.25 699 367.222656 699 362.25 C 699 357.28125 694.96875 353.25 690 353.25 Z M 690 353.25"/></clipPath></defs><g id="3bbeb5b0f5"><g clip-path="url(#e4fe0f7722)" clip-rule="nonzero"><g clip-path="url(#0bf36dc89f)" clip-rule="nonzero"><path d="M 600 224.25 L 840 224.25 L 840 584.25 L 600 584.25 Z M 600 224.25" style="stroke:none;fill-rule:nonzero;fill:#737373;fill-opacity:1;"/></g></g><g clip-path="url(#6108c53537)" clip-rule="nonzero"><g clip-path="url(#916390fec6)" clip-rule="nonzero"><path transform="matrix(0.75,0,0,0.75,599.999976,224.26353)" d="M 320.000048 6.997585 L 320.000048 472.966358 C 320.000048 476.830942 316.864631 479.966359 313.000048 479.966359 L 7.000032 479.966359 C 3.135449 479.966359 0.0000319506 476.830942 0.0000319506 472.966358 L 0.0000319506 6.997585 C 0.0000319506 3.133001 3.135449 -0.00241542 7.000032 -0.00241542 L 313.000048 -0.00241542 C 316.864631 -0.00241542 320.000048 3.133001 320.000048 6.997585 Z M 320.000048 6.997585" style="fill:none;stroke-width:8;stroke-linecap:butt;stroke-linejoin:miter;stroke:#000000;stroke-opacity:1;stroke-miterlimit:4;"/></g></g><g clip-path="url(#d451fa8c76)" clip-rule="nonzero"><g clip-path="url(#27e2c4ce1f)" clip-rule="nonzero"><path transform="matrix(0.75,0,0,0.75,611.999975,260.250007)" d="M 7.000033 -0.00000920957 L 281.000047 -0.00000920957 C 282.854214 -0.00000920957 284.635464 0.739574 285.947964 2.052074 C 287.260464 3.364574 288.000047 5.145824 288.000047 6.999991 L 288.000047 409.000011 C 288.000047 410.854178 287.260464 412.635428 285.947964 413.947928 C 284.635464 415.260428 282.854214 416.000012 281.000047 416.000012 L 7.000033 416.000012 C 5.145866 416.000012 3.364616 415.260428 2.052116 413.947928 C 0.739616 412.635428 0.0000327556 410.854178 0.0000327556 409.000011 L 0.0000327556 6.999991 C 0.0000327556 5.145824 0.739616 3.364574 2.052116 2.052074 C 3.364616 0.739574 5.145866 -0.00000920957 7.000033 -0.00000920957 Z M 7.000033 -0.00000920957" style="fill:none;stroke-width:8;stroke-linecap:butt;stroke-linejoin:miter;stroke:#000000;stroke-opacity:1;stroke-miterlimit:4;"/></g></g><g clip-path="url(#9e797ff55d)" clip-rule="nonzero"><g clip-path="url(#d2282d4723)" clip-rule="nonzero"><path d="M 624 272.25 L 816.09375 272.25 L 816.09375 344.25 L 624 344.25 Z M 624 272.25" style="stroke:none;fill-rule:nonzero;fill:#b4b4b4;fill-opacity:1;"/><path transform="matrix(0.75,0,0,0.75,623.999975,272.250006)" d="M 14.000034 -0.00000840463 L 242.000046 -0.00000840463 C 249.734421 -0.00000840463 256.000046 6.265617 256.000046 13.999992 L 256.000046 81.999996 C 256.000046 89.734371 249.734421 95.999996 242.000046 95.999996 L 14.000034 95.999996 C 6.265659 95.999996 0.0000335605 89.734371 0.0000335605 81.999996 L 0.0000335605 13.999992 C 0.0000335605 6.265617 6.265659 -0.00000840463 14.000034 -0.00000840463 Z M 14.000034 -0.00000840463" style="fill:none;stroke-width:8;stroke-linecap:butt;stroke-linejoin:miter;stroke:#000000;stroke-opacity:1;stroke-miterlimit:4;"/></g></g><g clip-path="url(#d8c6779178)" clip-rule="nonzero"><path d="M 624 380.253906 L 684 380.253906 L 684 428.253906 L 624 428.253906 Z M 624 380.253906" style="stroke:none;fill-rule:nonzero;fill:#b4b4b4;fill-opacity:1;"/></g><g clip-path="url(#4b809cb773)" clip-rule="nonzero"><path d="M 690 380.253906 L 750 380.253906 L 750 428.253906 L 690 428.253906 Z M 690 380.253906" style="stroke:none;fill-rule:nonzero;fill:#b4b4b4;fill-opacity:1;"/></g><g clip-path="url(#540f3b2968)" clip-rule="nonzero"><path d="M 756 380.253906 L 816 380.253906 L 816 428.253906 L 756 428.253906 Z M 756 380.253906" style="stroke:none;fill-rule:nonzero;fill:#b4b4b4;fill-opacity:1;"/></g><g clip-path="url(#ee674de52e)" clip-rule="nonzero"><path d="M 624 440.25 L 684 440.25 L 684 488.25 L 624 488.25 Z M 624 440.25" style="stroke:none;fill-rule:nonzero;fill:#b4b4b4;fill-opacity:1;"/></g><g clip-path="url(#40361081e0)" clip-rule="nonzero"><path d="M 690 440.25 L 750 440.25 L 750 488.25 L 690 488.25 Z M 690 440.25" style="stroke:none;fill-rule:nonzero;fill:#b4b4b4;fill-opacity:1;"/></g><g clip-path="url(#f9e8515875)" clip-rule="nonzero"><path d="M 756 440.25 L 816 440.25 L 816 488.25 L 756 488.25 Z M 756 440.25" style="stroke:none;fill-rule:nonzero;fill:#b4b4b4;fill-opacity:1;"/></g><g clip-path="url(#bc6e21a120)" clip-rule="nonzero"><path d="M 624 500.25 L 684 500.25 L 684 548.25 L 624 548.25 Z M 624 500.25" style="stroke:none;fill-rule:nonzero;fill:#b4b4b4;fill-opacity:1;"/></g><g clip-path="url(#4d0cf756a5)" clip-rule="nonzero"><path d="M 690 500.25 L 750 500.25 L 750 548.25 L 690 548.25 Z M 690 500.25" style="stroke:none;fill-rule:nonzero;fill:#b4b4b4;fill-opacity:1;"/></g><g clip-path="url(#08f2a0e906)" clip-rule="nonzero"><path d="M 756 500.25 L 816 500.25 L 816 548.25 L 756 548.25 Z M 756 500.25" style="stroke:none;fill-rule:nonzero;fill:#b4b4b4;fill-opacity:1;"/></g><g clip-path="url(#2976557684)" clip-rule="nonzero"><g clip-path="url(#5145819c7c)" clip-rule="nonzero"><path d="M 708 350.25 L 732 350.25 L 732 374.25 L 708 374.25 Z M 708 350.25" style="stroke:none;fill-rule:nonzero;fill:#b4b4b4;fill-opacity:1;"/></g></g><g style="fill:#ffffff;fill-opacity:1;"><g transform="translate(656.521845, 251.700007)"><path d="M 11.75 -11.984375 C 12.195312 -11.984375 12.539062 -11.882812 12.78125 -11.6875 C 13.03125 -11.5 13.15625 -11.238281 13.15625 -10.90625 C 13.15625 -10.738281 13.128906 -10.578125 13.078125 -10.421875 L 12.625 -8.75 C 12.53125 -8.425781 12.398438 -8.203125 12.234375 -8.078125 C 12.078125 -7.953125 11.851562 -7.890625 11.5625 -7.890625 C 11.269531 -7.890625 11.039062 -7.953125 10.875 -8.078125 C 10.71875 -8.203125 10.597656 -8.40625 10.515625 -8.6875 L 10.21875 -9.71875 C 10.164062 -9.9375 10.09375 -10.082031 10 -10.15625 C 9.914062 -10.226562 9.753906 -10.265625 9.515625 -10.265625 L 7.625 -10.265625 L 6.734375 -7.0625 L 7.53125 -7.0625 C 7.613281 -7.0625 7.722656 -7.117188 7.859375 -7.234375 L 8.484375 -7.78125 C 8.660156 -7.9375 8.8125 -8.046875 8.9375 -8.109375 C 9.070312 -8.179688 9.238281 -8.21875 9.4375 -8.21875 C 9.644531 -8.21875 9.816406 -8.160156 9.953125 -8.046875 C 10.097656 -7.941406 10.171875 -7.796875 10.171875 -7.609375 C 10.171875 -7.566406 10.160156 -7.492188 10.140625 -7.390625 L 9.390625 -4.890625 C 9.316406 -4.628906 9.191406 -4.4375 9.015625 -4.3125 C 8.847656 -4.1875 8.660156 -4.125 8.453125 -4.125 C 8.117188 -4.125 7.867188 -4.296875 7.703125 -4.640625 L 7.390625 -5.28125 C 7.304688 -5.457031 7.175781 -5.546875 7 -5.546875 L 6.296875 -5.546875 L 5.234375 -1.734375 L 6.828125 -1.734375 C 7.046875 -1.734375 7.242188 -1.773438 7.421875 -1.859375 C 7.597656 -1.953125 7.785156 -2.113281 7.984375 -2.34375 L 9.078125 -3.53125 C 9.265625 -3.726562 9.441406 -3.875 9.609375 -3.96875 C 9.785156 -4.0625 10.003906 -4.109375 10.265625 -4.109375 C 10.523438 -4.109375 10.738281 -4.046875 10.90625 -3.921875 C 11.070312 -3.804688 11.15625 -3.628906 11.15625 -3.390625 C 11.15625 -3.285156 11.140625 -3.171875 11.109375 -3.046875 L 10.578125 -1.21875 C 10.453125 -0.769531 10.257812 -0.453125 10 -0.265625 C 9.75 -0.0859375 9.382812 0 8.90625 0 L 0.328125 0 C 0.078125 0 -0.113281 -0.0390625 -0.25 -0.125 C -0.394531 -0.207031 -0.46875 -0.320312 -0.46875 -0.46875 C -0.46875 -0.539062 -0.445312 -0.617188 -0.40625 -0.703125 C -0.363281 -0.835938 -0.285156 -0.9375 -0.171875 -1 C -0.0664062 -1.070312 -0.00390625 -1.117188 0.015625 -1.140625 C 0.210938 -1.253906 0.367188 -1.375 0.484375 -1.5 C 0.609375 -1.625 0.710938 -1.832031 0.796875 -2.125 L 3 -9.875 C 3.050781 -10.03125 3.078125 -10.175781 3.078125 -10.3125 C 3.078125 -10.457031 3.054688 -10.578125 3.015625 -10.671875 C 2.972656 -10.765625 2.910156 -10.867188 2.828125 -10.984375 C 2.710938 -11.140625 2.65625 -11.265625 2.65625 -11.359375 C 2.65625 -11.390625 2.671875 -11.457031 2.703125 -11.5625 C 2.742188 -11.71875 2.847656 -11.828125 3.015625 -11.890625 C 3.191406 -11.953125 3.441406 -11.984375 3.765625 -11.984375 Z M 11.75 -11.984375" style="stroke:none"/></g></g><g style="fill:#ffffff;fill-opacity:1;"><g transform="translate(668.599813, 251.700007)"><path d="M 10.3125 -4.640625 C 10.644531 -4.640625 10.898438 -4.570312 11.078125 -4.4375 C 11.253906 -4.300781 11.34375 -4.109375 11.34375 -3.859375 C 11.34375 -3.742188 11.320312 -3.617188 11.28125 -3.484375 L 10.6875 -1.390625 C 10.53125 -0.867188 10.3125 -0.503906 10.03125 -0.296875 C 9.75 -0.0976562 9.332031 0 8.78125 0 L 0.328125 0 C 0.078125 0 -0.113281 -0.0390625 -0.25 -0.125 C -0.394531 -0.207031 -0.46875 -0.320312 -0.46875 -0.46875 C -0.46875 -0.539062 -0.445312 -0.617188 -0.40625 -0.703125 C -0.375 -0.796875 -0.316406 -0.875 -0.234375 -0.9375 C -0.148438 -1.007812 -0.0625 -1.078125 0.03125 -1.140625 C 0.226562 -1.253906 0.382812 -1.375 0.5 -1.5 C 0.625 -1.625 0.726562 -1.832031 0.8125 -2.125 L 3 -9.875 C 3.050781 -10.03125 3.078125 -10.179688 3.078125 -10.328125 C 3.078125 -10.460938 3.054688 -10.570312 3.015625 -10.65625 C 2.972656 -10.75 2.914062 -10.859375 2.84375 -10.984375 C 2.738281 -11.140625 2.6875 -11.265625 2.6875 -11.359375 C 2.6875 -11.390625 2.695312 -11.457031 2.71875 -11.5625 C 2.769531 -11.71875 2.875 -11.828125 3.03125 -11.890625 C 3.195312 -11.953125 3.445312 -11.984375 3.78125 -11.984375 L 8.015625 -11.984375 C 8.265625 -11.984375 8.457031 -11.941406 8.59375 -11.859375 C 8.726562 -11.785156 8.796875 -11.675781 8.796875 -11.53125 C 8.796875 -11.476562 8.78125 -11.398438 8.75 -11.296875 C 8.707031 -11.210938 8.65625 -11.140625 8.59375 -11.078125 C 8.53125 -11.015625 8.46875 -10.96875 8.40625 -10.9375 C 8.351562 -10.90625 8.316406 -10.878906 8.296875 -10.859375 C 8.109375 -10.742188 7.953125 -10.617188 7.828125 -10.484375 C 7.710938 -10.359375 7.613281 -10.15625 7.53125 -9.875 L 5.203125 -1.734375 L 6.3125 -1.734375 C 6.59375 -1.734375 6.832031 -1.78125 7.03125 -1.875 C 7.226562 -1.96875 7.4375 -2.144531 7.65625 -2.40625 L 8.890625 -3.890625 C 9.117188 -4.148438 9.335938 -4.335938 9.546875 -4.453125 C 9.753906 -4.578125 10.007812 -4.640625 10.3125 -4.640625 Z M 10.3125 -4.640625" style="stroke:none"/></g></g><g style="fill:#ffffff;fill-opacity:1;"><g transform="translate(680.317773, 251.700007)"><path d="M 10.3125 -4.640625 C 10.644531 -4.640625 10.898438 -4.570312 11.078125 -4.4375 C 11.253906 -4.300781 11.34375 -4.109375 11.34375 -3.859375 C 11.34375 -3.742188 11.320312 -3.617188 11.28125 -3.484375 L 10.6875 -1.390625 C 10.53125 -0.867188 10.3125 -0.503906 10.03125 -0.296875 C 9.75 -0.0976562 9.332031 0 8.78125 0 L 0.328125 0 C 0.078125 0 -0.113281 -0.0390625 -0.25 -0.125 C -0.394531 -0.207031 -0.46875 -0.320312 -0.46875 -0.46875 C -0.46875 -0.539062 -0.445312 -0.617188 -0.40625 -0.703125 C -0.375 -0.796875 -0.316406 -0.875 -0.234375 -0.9375 C -0.148438 -1.007812 -0.0625 -1.078125 0.03125 -1.140625 C 0.226562 -1.253906 0.382812 -1.375 0.5 -1.5 C 0.625 -1.625 0.726562 -1.832031 0.8125 -2.125 L 3 -9.875 C 3.050781 -10.03125 3.078125 -10.179688 3.078125 -10.328125 C 3.078125 -10.460938 3.054688 -10.570312 3.015625 -10.65625 C 2.972656 -10.75 2.914062 -10.859375 2.84375 -10.984375 C 2.738281 -11.140625 2.6875 -11.265625 2.6875 -11.359375 C 2.6875 -11.390625 2.695312 -11.457031 2.71875 -11.5625 C 2.769531 -11.71875 2.875 -11.828125 3.03125 -11.890625 C 3.195312 -11.953125 3.445312 -11.984375 3.78125 -11.984375 L 8.015625 -11.984375 C 8.265625 -11.984375 8.457031 -11.941406 8.59375 -11.859375 C 8.726562 -11.785156 8.796875 -11.675781 8.796875 -11.53125 C 8.796875 -11.476562 8.78125 -11.398438 8.75 -11.296875 C 8.707031 -11.210938 8.65625 -11.140625 8.59375 -11.078125 C 8.53125 -11.015625 8.46875 -10.96875 8.40625 -10.9375 C 8.351562 -10.90625 8.316406 -10.878906 8.296875 -10.859375 C 8.109375 -10.742188 7.953125 -10.617188 7.828125 -10.484375 C 7.710938 -10.359375 7.613281 -10.15625 7.53125 -9.875 L 5.203125 -1.734375 L 6.3125 -1.734375 C 6.59375 -1.734375 6.832031 -1.78125 7.03125 -1.875 C 7.226562 -1.96875 7.4375 -2.144531 7.65625 -2.40625 L 8.890625 -3.890625 C 9.117188 -4.148438 9.335938 -4.335938 9.546875 -4.453125 C 9.753906 -4.578125 10.007812 -4.640625 10.3125 -4.640625 Z M 10.3125 -4.640625" style="stroke:none"/></g></g><g style="fill:#ffffff;fill-opacity:1;"><g transform="translate(692.035733, 251.700007)"><path d="M 6.265625 0.109375 C 5.253906 0.109375 4.347656 -0.078125 3.546875 -0.453125 C 2.742188 -0.828125 2.101562 -1.375 1.625 -2.09375 C 1.15625 -2.820312 0.921875 -3.703125 0.921875 -4.734375 C 0.921875 -5.453125 1.046875 -6.234375 1.296875 -7.078125 C 1.847656 -8.878906 2.679688 -10.175781 3.796875 -10.96875 C 4.910156 -11.769531 6.101562 -12.171875 7.375 -12.171875 C 8.0625 -12.171875 8.664062 -12.066406 9.1875 -11.859375 C 9.71875 -11.660156 10.207031 -11.367188 10.65625 -10.984375 L 11.140625 -11.359375 C 11.460938 -11.609375 11.734375 -11.78125 11.953125 -11.875 C 12.179688 -11.976562 12.429688 -12.03125 12.703125 -12.03125 C 13.003906 -12.03125 13.242188 -11.960938 13.421875 -11.828125 C 13.609375 -11.691406 13.703125 -11.5 13.703125 -11.25 C 13.703125 -11.113281 13.675781 -10.984375 13.625 -10.859375 L 12.625 -8.046875 C 12.507812 -7.722656 12.375 -7.492188 12.21875 -7.359375 C 12.070312 -7.222656 11.851562 -7.15625 11.5625 -7.15625 C 11.25 -7.15625 10.992188 -7.265625 10.796875 -7.484375 C 10.597656 -7.710938 10.367188 -8.097656 10.109375 -8.640625 C 9.828125 -9.203125 9.59375 -9.570312 9.40625 -9.75 C 9.226562 -9.9375 8.96875 -10.03125 8.625 -10.03125 C 8.132812 -10.03125 7.660156 -9.722656 7.203125 -9.109375 C 6.742188 -8.503906 6.328125 -7.597656 5.953125 -6.390625 C 5.640625 -5.367188 5.484375 -4.515625 5.484375 -3.828125 C 5.484375 -3.234375 5.597656 -2.785156 5.828125 -2.484375 C 6.054688 -2.191406 6.363281 -2.046875 6.75 -2.046875 C 7.3125 -2.046875 7.773438 -2.171875 8.140625 -2.421875 C 8.503906 -2.679688 8.878906 -3.023438 9.265625 -3.453125 C 9.503906 -3.722656 9.695312 -3.921875 9.84375 -4.046875 C 10 -4.171875 10.160156 -4.234375 10.328125 -4.234375 C 10.546875 -4.234375 10.773438 -4.125 11.015625 -3.90625 C 11.253906 -3.6875 11.367188 -3.472656 11.359375 -3.265625 C 11.367188 -2.992188 11.15625 -2.582031 10.71875 -2.03125 C 10.28125 -1.476562 9.671875 -0.984375 8.890625 -0.546875 C 8.117188 -0.109375 7.242188 0.109375 6.265625 0.109375 Z M 6.265625 0.109375" style="stroke:none"/></g></g><g style="fill:#ffffff;fill-opacity:1;"><g transform="translate(704.491699, 251.700007)"><path d="M 11 -9.5625 C 11.226562 -10.382812 11.546875 -11.003906 11.953125 -11.421875 C 12.367188 -11.847656 12.945312 -12.0625 13.6875 -12.0625 C 14.257812 -12.0625 14.71875 -11.878906 15.0625 -11.515625 C 15.414062 -11.148438 15.59375 -10.695312 15.59375 -10.15625 C 15.59375 -9.96875 15.5625 -9.753906 15.5 -9.515625 C 15.363281 -8.992188 15.128906 -8.613281 14.796875 -8.375 C 14.460938 -8.144531 14.097656 -8.03125 13.703125 -8.03125 C 13.492188 -8.03125 13.304688 -8.046875 13.140625 -8.078125 C 12.984375 -8.109375 12.832031 -8.144531 12.6875 -8.1875 L 11.625 -4.28125 C 11.238281 -2.851562 10.597656 -1.765625 9.703125 -1.015625 C 8.804688 -0.265625 7.582031 0.109375 6.03125 0.109375 C 4.613281 0.109375 3.507812 -0.160156 2.71875 -0.703125 C 1.9375 -1.242188 1.546875 -2.082031 1.546875 -3.21875 C 1.546875 -3.769531 1.644531 -4.378906 1.84375 -5.046875 L 3.203125 -9.875 C 3.253906 -10.03125 3.28125 -10.179688 3.28125 -10.328125 C 3.28125 -10.472656 3.257812 -10.585938 3.21875 -10.671875 C 3.175781 -10.765625 3.117188 -10.875 3.046875 -11 C 2.929688 -11.15625 2.875 -11.28125 2.875 -11.375 C 2.875 -11.425781 2.890625 -11.488281 2.921875 -11.5625 C 2.960938 -11.71875 3.066406 -11.828125 3.234375 -11.890625 C 3.398438 -11.953125 3.648438 -11.984375 3.984375 -11.984375 L 8.203125 -11.984375 C 8.722656 -11.984375 8.984375 -11.828125 8.984375 -11.515625 C 8.984375 -11.441406 8.976562 -11.382812 8.96875 -11.34375 C 8.925781 -11.226562 8.875 -11.140625 8.8125 -11.078125 C 8.75 -11.015625 8.648438 -10.941406 8.515625 -10.859375 C 8.316406 -10.742188 8.15625 -10.617188 8.03125 -10.484375 C 7.914062 -10.359375 7.816406 -10.15625 7.734375 -9.875 L 6.171875 -4.375 C 6.066406 -3.96875 6.015625 -3.617188 6.015625 -3.328125 C 6.015625 -2.523438 6.445312 -2.125 7.3125 -2.125 C 7.832031 -2.125 8.269531 -2.296875 8.625 -2.640625 C 8.976562 -2.984375 9.273438 -3.566406 9.515625 -4.390625 Z M 11 -9.5625" style="stroke:none"/></g></g><g style="fill:#ffffff;fill-opacity:1;"><g transform="translate(718.675655, 251.700007)"><path d="M 10.3125 -4.640625 C 10.644531 -4.640625 10.898438 -4.570312 11.078125 -4.4375 C 11.253906 -4.300781 11.34375 -4.109375 11.34375 -3.859375 C 11.34375 -3.742188 11.320312 -3.617188 11.28125 -3.484375 L 10.6875 -1.390625 C 10.53125 -0.867188 10.3125 -0.503906 10.03125 -0.296875 C 9.75 -0.0976562 9.332031 0 8.78125 0 L 0.328125 0 C 0.078125 0 -0.113281 -0.0390625 -0.25 -0.125 C -0.394531 -0.207031 -0.46875 -0.320312 -0.46875 -0.46875 C -0.46875 -0.539062 -0.445312 -0.617188 -0.40625 -0.703125 C -0.375 -0.796875 -0.316406 -0.875 -0.234375 -0.9375 C -0.148438 -1.007812 -0.0625 -1.078125 0.03125 -1.140625 C 0.226562 -1.253906 0.382812 -1.375 0.5 -1.5 C 0.625 -1.625 0.726562 -1.832031 0.8125 -2.125 L 3 -9.875 C 3.050781 -10.03125 3.078125 -10.179688 3.078125 -10.328125 C 3.078125 -10.460938 3.054688 -10.570312 3.015625 -10.65625 C 2.972656 -10.75 2.914062 -10.859375 2.84375 -10.984375 C 2.738281 -11.140625 2.6875 -11.265625 2.6875 -11.359375 C 2.6875 -11.390625 2.695312 -11.457031 2.71875 -11.5625 C 2.769531 -11.71875 2.875 -11.828125 3.03125 -11.890625 C 3.195312 -11.953125 3.445312 -11.984375 3.78125 -11.984375 L 8.015625 -11.984375 C 8.265625 -11.984375 8.457031 -11.941406 8.59375 -11.859375 C 8.726562 -11.785156 8.796875 -11.675781 8.796875 -11.53125 C 8.796875 -11.476562 8.78125 -11.398438 8.75 -11.296875 C 8.707031 -11.210938 8.65625 -11.140625 8.59375 -11.078125 C 8.53125 -11.015625 8.46875 -10.96875 8.40625 -10.9375 C 8.351562 -10.90625 8.316406 -10.878906 8.296875 -10.859375 C 8.109375 -10.742188 7.953125 -10.617188 7.828125 -10.484375 C 7.710938 -10.359375 7.613281 -10.15625 7.53125 -9.875 L 5.203125 -1.734375 L 6.3125 -1.734375 C 6.59375 -1.734375 6.832031 -1.78125 7.03125 -1.875 C 7.226562 -1.96875 7.4375 -2.144531 7.65625 -2.40625 L 8.890625 -3.890625 C 9.117188 -4.148438 9.335938 -4.335938 9.546875 -4.453125 C 9.753906 -4.578125 10.007812 -4.640625 10.3125 -4.640625 Z M 10.3125 -4.640625" style="stroke:none"/></g></g><g style="fill:#ffffff;fill-opacity:1;"><g transform="translate(730.393614, 251.700007)"><path d="M 11 -2.125 C 10.945312 -1.96875 10.921875 -1.8125 10.921875 -1.65625 C 10.921875 -1.519531 10.9375 -1.40625 10.96875 -1.3125 C 11.007812 -1.226562 11.050781 -1.160156 11.09375 -1.109375 C 11.132812 -1.054688 11.160156 -1.015625 11.171875 -0.984375 C 11.296875 -0.867188 11.359375 -0.75 11.359375 -0.625 C 11.359375 -0.601562 11.347656 -0.546875 11.328125 -0.453125 C 11.273438 -0.285156 11.164062 -0.164062 11 -0.09375 C 10.84375 -0.03125 10.597656 0 10.265625 0 L 6 0 C 5.738281 0 5.539062 -0.0390625 5.40625 -0.125 C 5.269531 -0.207031 5.203125 -0.320312 5.203125 -0.46875 C 5.203125 -0.539062 5.21875 -0.617188 5.25 -0.703125 C 5.289062 -0.796875 5.34375 -0.867188 5.40625 -0.921875 C 5.476562 -0.984375 5.570312 -1.046875 5.6875 -1.109375 C 5.875 -1.222656 6.03125 -1.34375 6.15625 -1.46875 C 6.28125 -1.601562 6.382812 -1.820312 6.46875 -2.125 L 6.9375 -3.671875 L 4.125 -3.671875 L 3.640625 -2.640625 C 3.429688 -2.203125 3.328125 -1.859375 3.328125 -1.609375 C 3.328125 -1.460938 3.347656 -1.34375 3.390625 -1.25 C 3.441406 -1.15625 3.519531 -1.0625 3.625 -0.96875 C 3.707031 -0.875 3.757812 -0.789062 3.78125 -0.71875 C 3.8125 -0.65625 3.816406 -0.570312 3.796875 -0.46875 C 3.742188 -0.289062 3.644531 -0.164062 3.5 -0.09375 C 3.351562 -0.03125 3.117188 0 2.796875 0 L 0.109375 0 C -0.171875 0 -0.378906 -0.0507812 -0.515625 -0.15625 C -0.660156 -0.257812 -0.734375 -0.394531 -0.734375 -0.5625 C -0.734375 -0.75 -0.664062 -0.898438 -0.53125 -1.015625 C -0.394531 -1.128906 -0.1875 -1.253906 0.09375 -1.390625 C 0.445312 -1.566406 0.734375 -1.738281 0.953125 -1.90625 C 1.171875 -2.082031 1.359375 -2.328125 1.515625 -2.640625 L 4.71875 -9.28125 C 5.207031 -10.3125 5.785156 -11.054688 6.453125 -11.515625 C 7.117188 -11.984375 8 -12.21875 9.09375 -12.21875 C 10.3125 -12.21875 11.253906 -11.96875 11.921875 -11.46875 C 12.597656 -10.976562 12.9375 -10.285156 12.9375 -9.390625 C 12.9375 -9.023438 12.878906 -8.644531 12.765625 -8.25 Z M 7.46875 -5.46875 L 8.421875 -8.640625 C 8.472656 -8.785156 8.5 -8.9375 8.5 -9.09375 C 8.5 -9.320312 8.4375 -9.492188 8.3125 -9.609375 C 8.1875 -9.722656 8.007812 -9.78125 7.78125 -9.78125 C 7.488281 -9.78125 7.238281 -9.691406 7.03125 -9.515625 C 6.832031 -9.347656 6.628906 -9.050781 6.421875 -8.625 L 4.953125 -5.46875 Z M 7.46875 -5.46875" style="stroke:none"/></g></g><g style="fill:#ffffff;fill-opacity:1;"><g transform="translate(742.957579, 251.700007)"><path d="M 14.421875 -11.984375 C 15.078125 -11.984375 15.40625 -11.710938 15.40625 -11.171875 C 15.40625 -11.003906 15.367188 -10.796875 15.296875 -10.546875 L 14.875 -9.09375 C 14.738281 -8.644531 14.570312 -8.332031 14.375 -8.15625 C 14.1875 -7.976562 13.910156 -7.890625 13.546875 -7.890625 C 13.253906 -7.890625 13.023438 -7.96875 12.859375 -8.125 C 12.703125 -8.28125 12.550781 -8.523438 12.40625 -8.859375 L 12.09375 -9.59375 C 12 -9.820312 11.894531 -9.976562 11.78125 -10.0625 C 11.675781 -10.144531 11.507812 -10.1875 11.28125 -10.1875 L 10.875 -10.1875 L 8.59375 -2.140625 C 8.550781 -1.984375 8.53125 -1.847656 8.53125 -1.734375 C 8.53125 -1.585938 8.550781 -1.460938 8.59375 -1.359375 C 8.632812 -1.265625 8.695312 -1.164062 8.78125 -1.0625 C 8.894531 -0.894531 8.953125 -0.753906 8.953125 -0.640625 C 8.953125 -0.617188 8.9375 -0.5625 8.90625 -0.46875 C 8.84375 -0.3125 8.722656 -0.195312 8.546875 -0.125 C 8.378906 -0.0507812 8.132812 -0.015625 7.8125 -0.015625 L 3.578125 -0.015625 C 3.328125 -0.015625 3.132812 -0.0546875 3 -0.140625 C 2.863281 -0.222656 2.796875 -0.34375 2.796875 -0.5 C 2.796875 -0.570312 2.8125 -0.644531 2.84375 -0.71875 C 2.894531 -0.820312 2.953125 -0.898438 3.015625 -0.953125 C 3.078125 -1.015625 3.175781 -1.085938 3.3125 -1.171875 C 3.488281 -1.273438 3.632812 -1.394531 3.75 -1.53125 C 3.875 -1.664062 3.976562 -1.867188 4.0625 -2.140625 L 6.34375 -10.1875 L 5.921875 -10.1875 C 5.660156 -10.1875 5.441406 -10.144531 5.265625 -10.0625 C 5.097656 -9.976562 4.921875 -9.820312 4.734375 -9.59375 L 4.140625 -8.859375 C 3.859375 -8.535156 3.585938 -8.289062 3.328125 -8.125 C 3.078125 -7.96875 2.800781 -7.890625 2.5 -7.890625 C 2.226562 -7.890625 2.015625 -7.957031 1.859375 -8.09375 C 1.703125 -8.238281 1.625 -8.4375 1.625 -8.6875 C 1.625 -8.8125 1.640625 -8.945312 1.671875 -9.09375 L 2.140625 -10.734375 C 2.234375 -11.066406 2.335938 -11.316406 2.453125 -11.484375 C 2.578125 -11.660156 2.75 -11.785156 2.96875 -11.859375 C 3.195312 -11.941406 3.515625 -11.984375 3.921875 -11.984375 Z M 14.421875 -11.984375" style="stroke:none"/></g></g><g style="fill:#ffffff;fill-opacity:1;"><g transform="translate(756.619534, 251.700007)"><path d="M 8.765625 -12.265625 C 10.273438 -12.265625 11.457031 -11.90625 12.3125 -11.1875 C 13.164062 -10.46875 13.59375 -9.4375 13.59375 -8.09375 C 13.59375 -7.457031 13.492188 -6.773438 13.296875 -6.046875 C 12.941406 -4.703125 12.382812 -3.5625 11.625 -2.625 C 10.875 -1.6875 9.972656 -0.976562 8.921875 -0.5 C 7.878906 -0.0195312 6.75 0.21875 5.53125 0.21875 C 4.03125 0.21875 2.851562 -0.132812 2 -0.84375 C 1.144531 -1.5625 0.71875 -2.59375 0.71875 -3.9375 C 0.71875 -4.550781 0.820312 -5.253906 1.03125 -6.046875 C 1.375 -7.378906 1.921875 -8.507812 2.671875 -9.4375 C 3.421875 -10.363281 4.3125 -11.066406 5.34375 -11.546875 C 6.382812 -12.023438 7.523438 -12.265625 8.765625 -12.265625 Z M 8.4375 -10.5 C 8.082031 -10.5 7.757812 -10.351562 7.46875 -10.0625 C 7.175781 -9.769531 6.890625 -9.296875 6.609375 -8.640625 C 6.328125 -7.992188 6.023438 -7.085938 5.703125 -5.921875 C 5.222656 -4.242188 4.984375 -3.085938 4.984375 -2.453125 C 4.984375 -2.078125 5.046875 -1.804688 5.171875 -1.640625 C 5.304688 -1.472656 5.519531 -1.390625 5.8125 -1.390625 C 6.175781 -1.390625 6.5 -1.535156 6.78125 -1.828125 C 7.070312 -2.117188 7.351562 -2.585938 7.625 -3.234375 C 7.90625 -3.890625 8.210938 -4.785156 8.546875 -5.921875 C 9.015625 -7.578125 9.25 -8.738281 9.25 -9.40625 C 9.25 -9.789062 9.179688 -10.066406 9.046875 -10.234375 C 8.921875 -10.410156 8.71875 -10.5 8.4375 -10.5 Z M 8.4375 -10.5" style="stroke:none"/></g></g><g style="fill:#ffffff;fill-opacity:1;"><g transform="translate(769.813496, 251.700007)"><path d="M 13.75 -8.328125 C 13.5625 -7.640625 13.203125 -7.097656 12.671875 -6.703125 C 12.140625 -6.316406 11.472656 -6.070312 10.671875 -5.96875 C 11.242188 -5.925781 11.675781 -5.757812 11.96875 -5.46875 C 12.257812 -5.1875 12.40625 -4.8125 12.40625 -4.34375 C 12.40625 -4.15625 12.375 -3.929688 12.3125 -3.671875 L 12.109375 -2.796875 C 12.085938 -2.671875 12.078125 -2.582031 12.078125 -2.53125 C 12.078125 -2.375 12.113281 -2.253906 12.1875 -2.171875 C 12.257812 -2.097656 12.359375 -2.0625 12.484375 -2.0625 C 12.742188 -2.0625 12.929688 -2.023438 13.046875 -1.953125 C 13.160156 -1.890625 13.195312 -1.757812 13.15625 -1.5625 C 13.101562 -1.289062 12.957031 -1.019531 12.71875 -0.75 C 12.476562 -0.488281 12.140625 -0.269531 11.703125 -0.09375 C 11.265625 0.0703125 10.734375 0.15625 10.109375 0.15625 C 9.316406 0.15625 8.6875 -0.0195312 8.21875 -0.375 C 7.757812 -0.726562 7.53125 -1.234375 7.53125 -1.890625 C 7.53125 -2.140625 7.5625 -2.410156 7.625 -2.703125 L 7.921875 -3.859375 C 7.960938 -4.015625 7.984375 -4.175781 7.984375 -4.34375 C 7.984375 -4.613281 7.890625 -4.804688 7.703125 -4.921875 C 7.523438 -5.046875 7.234375 -5.109375 6.828125 -5.109375 L 6.140625 -5.109375 L 5.3125 -2.125 C 5.289062 -2.050781 5.28125 -1.960938 5.28125 -1.859375 C 5.28125 -1.691406 5.320312 -1.546875 5.40625 -1.421875 C 5.488281 -1.296875 5.597656 -1.171875 5.734375 -1.046875 C 5.847656 -0.960938 5.929688 -0.878906 5.984375 -0.796875 C 6.046875 -0.722656 6.078125 -0.644531 6.078125 -0.5625 C 6.078125 -0.351562 5.984375 -0.207031 5.796875 -0.125 C 5.609375 -0.0390625 5.328125 0 4.953125 0 L 0.4375 0 C 0.125 0 -0.109375 -0.0546875 -0.265625 -0.171875 C -0.421875 -0.285156 -0.476562 -0.441406 -0.4375 -0.640625 C -0.40625 -0.753906 -0.359375 -0.84375 -0.296875 -0.90625 C -0.234375 -0.976562 -0.132812 -1.054688 0 -1.140625 C 0.207031 -1.253906 0.367188 -1.375 0.484375 -1.5 C 0.609375 -1.632812 0.707031 -1.84375 0.78125 -2.125 L 2.96875 -9.875 C 3.019531 -10.03125 3.046875 -10.179688 3.046875 -10.328125 C 3.046875 -10.460938 3.023438 -10.570312 2.984375 -10.65625 C 2.941406 -10.75 2.882812 -10.859375 2.8125 -10.984375 C 2.695312 -11.140625 2.640625 -11.265625 2.640625 -11.359375 C 2.640625 -11.390625 2.65625 -11.457031 2.6875 -11.5625 C 2.726562 -11.71875 2.828125 -11.828125 2.984375 -11.890625 C 3.148438 -11.953125 3.40625 -11.984375 3.75 -11.984375 L 9.78125 -11.984375 C 10.601562 -11.984375 11.320312 -11.859375 11.9375 -11.609375 C 12.5625 -11.359375 13.035156 -11.015625 13.359375 -10.578125 C 13.691406 -10.140625 13.859375 -9.644531 13.859375 -9.09375 C 13.859375 -8.84375 13.820312 -8.585938 13.75 -8.328125 Z M 9.140625 -8.515625 C 9.203125 -8.785156 9.234375 -8.992188 9.234375 -9.140625 C 9.234375 -9.773438 8.882812 -10.09375 8.1875 -10.09375 L 7.4375 -10.09375 L 6.640625 -6.90625 L 7.390625 -6.90625 C 7.859375 -6.90625 8.226562 -7.019531 8.5 -7.25 C 8.769531 -7.476562 8.984375 -7.898438 9.140625 -8.515625 Z M 9.140625 -8.515625" style="stroke:none"/></g></g><g clip-path="url(#77df6197d6)" clip-rule="nonzero"><g clip-path="url(#0b1f0cd219)" clip-rule="nonzero"><path d="M 741 353.25 L 759 353.25 L 759 371.25 L 741 371.25 Z M 741 353.25" style="stroke:none;fill-rule:nonzero;fill:#b4b4b4;fill-opacity:1;"/></g></g><g clip-path="url(#98a21d8e0a)" clip-rule="nonzero"><g clip-path="url(#149b0c9b62)" clip-rule="nonzero"><path d="M 681 353.25 L 699 353.25 L 699 371.25 L 681 371.25 Z M 681 353.25" style="stroke:none;fill-rule:nonzero;fill:#b4b4b4;fill-opacity:1;"/></g></g></g></svg>