<svg xmlns="http://www.w3.org/2000/svg" xmlns:xlink="http://www.w3.org/1999/xlink" width="1920" zoomAndPan="magnify" viewBox="0 0 1440 809.999993" height="1080" preserveAspectRatio="xMidYMid meet" version="1.2"><defs><clipPath id="d846dd23fd"><path d="M 415.125 44.289062 L 1024.875 44.289062 L 1024.875 754 L 415.125 754 Z M 415.125 44.289062 "/></clipPath><clipPath id="cd3cf4ce6d"><path d="M 448.875 44.289062 L 991.125 44.289062 C 1009.765625 44.289062 1024.875 59.398438 1024.875 78.039062 L 1024.875 719.898438 C 1024.875 738.539062 1009.765625 753.648438 991.125 753.648438 L 448.875 753.648438 C 430.234375 753.648438 415.125 738.539062 415.125 719.898438 L 415.125 78.039062 C 415.125 59.398438 430.234375 44.289062 448.875 44.289062 Z M 448.875 44.289062 "/></clipPath><clipPath id="4564e32a3f"><path d="M 415.125 44.289062 L 1025 44.289062 L 1025 765.710938 L 415.125 765.710938 Z M 415.125 44.289062 "/></clipPath><clipPath id="48e6e6c4b6"><path d="M 420.148438 44.664062 L 954.601562 44.664062 L 970.199219 44.289062 L 980.550781 44.585938 L 990.898438 45.636719 L 996 46.386719 L 1001.023438 47.738281 L 1005.601562 50.136719 L 1009.273438 53.8125 L 1012.125 58.085938 L 1016.398438 67.539062 L 1018.125 72.488281 L 1019.25 77.511719 L 1021.425781 92.960938 L 1022.625 108.414062 L 1023.375 124.011719 L 1023.824219 144.710938 L 1024.273438 191.4375 L 1024.351562 694.761719 L 1024.875 715.539062 L 1024.648438 720.710938 L 1024.050781 725.886719 L 1022.324219 736.085938 L 1020.898438 741.039062 L 1018.574219 745.6875 L 1015.125 749.585938 L 1010.851562 752.511719 L 1006.199219 754.761719 L 1001.398438 756.710938 L 996.523438 758.4375 L 991.5 759.710938 L 986.324219 760.539062 L 970.875 762.335938 L 945 763.761719 L 913.875 764.4375 L 861.976562 764.738281 L 477.976562 764.8125 L 457.273438 765.710938 L 452.101562 765.414062 L 447 764.289062 L 442.125 762.488281 L 437.550781 760.164062 L 433.199219 757.3125 L 429.449219 753.710938 L 426.523438 749.511719 L 424.425781 744.710938 L 422.773438 739.835938 L 420.148438 729.789062 L 418.574219 719.511719 L 416.851562 698.8125 L 415.875 667.761719 L 415.351562 610.6875 L 415.125 60.636719 L 415.425781 55.460938 L 418.875 51.9375 L 423.675781 53.289062 L 424.800781 58.085938 L 421.125 61.386719 L 416.476562 59.8125 L 415.574219 54.9375 L 419.398438 51.789062 L 423.976562 53.664062 L 425.023438 58.613281 L 425.101562 603.488281 L 425.550781 665.738281 L 426.523438 696.863281 L 427.648438 712.386719 L 428.851562 722.664062 L 431.773438 737.960938 L 433.273438 742.914062 L 436.050781 747.261719 L 439.875 750.789062 L 444.375 753.335938 L 449.175781 755.136719 L 454.351562 755.960938 L 459.523438 755.960938 L 475.050781 755.0625 L 848.625 754.988281 L 895.351562 754.835938 L 931.648438 754.386719 L 962.773438 753.1875 L 983.398438 751.164062 L 988.574219 750.335938 L 998.625 747.863281 L 1003.574219 746.289062 L 1008.226562 743.960938 L 1011.523438 740.0625 L 1013.101562 735.113281 L 1014.449219 724.835938 L 1015.050781 714.488281 L 1014.601562 693.710938 L 1014.523438 195.5625 L 1014.148438 148.914062 L 1013.101562 112.613281 L 1012.050781 97.085938 L 1010.175781 81.636719 L 1009.125 76.539062 L 1006.273438 66.5625 L 1004.25 61.761719 L 1001.023438 57.789062 L 996.300781 55.6875 L 991.199219 54.9375 L 975.601562 54.113281 L 970.425781 54.113281 L 954.898438 54.414062 L 420.375 54.414062 L 416.023438 52.085938 L 415.875 47.136719 L 420.148438 44.664062 "/></clipPath><clipPath id="e0f3dea171"><path d="M 453.675781 238.164062 L 524.023438 238.164062 L 524.023438 323.902344 L 453.675781 323.902344 Z M 453.675781 238.164062 "/></clipPath><clipPath id="e15db8dc9b"><path d="M 457.5 238.238281 L 514.5 238.164062 L 519.148438 239.363281 L 521.699219 240.789062 L 522.976562 242.8125 L 523.726562 247.460938 L 524.023438 311.664062 L 523.273438 318.113281 L 522.675781 319.761719 L 522 320.738281 L 520.648438 321.9375 L 518.476562 322.835938 L 512.023438 323.585938 L 463.273438 323.738281 L 459.148438 323.210938 L 456.601562 321.710938 L 454.875 319.3125 L 454.125 315.863281 L 453.75 309.9375 L 453.675781 244.539062 L 453.824219 242.210938 L 454.5 240.5625 L 456.375 239.210938 L 458.699219 239.210938 L 460.574219 240.636719 L 461.25 242.289062 L 461.175781 243.414062 L 460.5 245.0625 L 459.074219 246.1875 L 457.949219 246.488281 L 456.226562 246.261719 L 454.726562 245.289062 L 454.050781 244.3125 L 453.75 242.585938 L 454.273438 240.863281 L 455.023438 239.960938 L 457.125 239.0625 L 458.324219 239.136719 L 459.898438 239.886719 L 460.949219 241.3125 L 461.25 242.4375 L 461.175781 313.761719 L 461.699219 316.011719 L 462.75 316.539062 L 467.476562 316.164062 L 510.824219 316.3125 L 513.675781 315.5625 L 516.074219 313.761719 L 516.601562 312.789062 L 516.75 311.585938 L 516.449219 307.460938 L 516.449219 252.1875 L 515.699219 246.9375 L 515.101562 245.886719 L 514.050781 245.363281 L 509.324219 245.738281 L 456.449219 245.585938 L 454.5 244.238281 L 453.976562 243.1875 L 453.824219 241.460938 L 454.425781 239.8125 L 455.25 238.988281 L 457.5 238.238281 "/></clipPath><clipPath id="cc4a150412"><path d="M 454.535156 356.179688 L 524.886719 356.179688 L 524.886719 441.917969 L 454.535156 441.917969 Z M 454.535156 356.179688 "/></clipPath><clipPath id="56506f745b"><path d="M 458.359375 356.253906 L 515.359375 356.179688 L 520.011719 357.378906 L 522.558594 358.804688 L 523.835938 360.832031 L 524.585938 365.480469 L 524.886719 429.679688 L 524.136719 436.128906 L 523.535156 437.78125 L 522.859375 438.753906 L 521.511719 439.957031 L 519.335938 440.855469 L 512.886719 441.605469 L 464.136719 441.753906 L 460.011719 441.230469 L 457.460938 439.730469 L 455.734375 437.332031 L 454.984375 433.878906 L 454.609375 427.957031 L 454.535156 362.554688 L 454.683594 360.230469 L 455.359375 358.582031 L 457.234375 357.230469 L 459.558594 357.230469 L 461.433594 358.65625 L 462.109375 360.304688 L 462.035156 361.429688 L 461.359375 363.082031 L 459.933594 364.207031 L 458.808594 364.503906 L 457.085938 364.28125 L 455.585938 363.304688 L 454.910156 362.332031 L 454.609375 360.605469 L 455.136719 358.878906 L 455.886719 357.980469 L 457.984375 357.082031 L 459.183594 357.15625 L 460.761719 357.90625 L 461.808594 359.332031 L 462.109375 360.457031 L 462.035156 431.78125 L 462.558594 434.03125 L 463.609375 434.554688 L 468.335938 434.179688 L 511.683594 434.332031 L 514.535156 433.582031 L 516.933594 431.78125 L 517.460938 430.804688 L 517.609375 429.605469 L 517.308594 425.480469 L 517.308594 370.207031 L 516.558594 364.957031 L 515.960938 363.90625 L 514.910156 363.378906 L 510.183594 363.753906 L 457.308594 363.605469 L 455.359375 362.253906 L 454.835938 361.207031 L 454.683594 359.480469 L 455.285156 357.832031 L 456.109375 357.003906 L 458.359375 356.253906 "/></clipPath><clipPath id="5e8c2f7e05"><path d="M 455.394531 474.199219 L 525.746094 474.199219 L 525.746094 559.9375 L 455.394531 559.9375 Z M 455.394531 474.199219 "/></clipPath><clipPath id="a39e67f587"><path d="M 459.21875 474.273438 L 516.21875 474.199219 L 520.871094 475.398438 L 523.421875 476.824219 L 524.695312 478.847656 L 525.445312 483.5 L 525.746094 547.699219 L 524.996094 554.148438 L 524.394531 555.796875 L 523.71875 556.773438 L 522.371094 557.972656 L 520.195312 558.875 L 513.746094 559.625 L 464.996094 559.773438 L 460.871094 559.25 L 458.320312 557.75 L 456.59375 555.347656 L 455.84375 551.898438 L 455.46875 545.972656 L 455.394531 480.574219 L 455.546875 478.25 L 456.21875 476.597656 L 458.09375 475.25 L 460.421875 475.25 L 462.296875 476.671875 L 462.96875 478.324219 L 462.894531 479.449219 L 462.21875 481.097656 L 460.796875 482.222656 L 459.671875 482.523438 L 457.945312 482.296875 L 456.445312 481.324219 L 455.769531 480.347656 L 455.46875 478.625 L 455.996094 476.898438 L 456.746094 476 L 458.84375 475.097656 L 460.046875 475.171875 L 461.621094 475.921875 L 462.671875 477.347656 L 462.96875 478.472656 L 462.894531 549.796875 L 463.421875 552.046875 L 464.46875 552.574219 L 469.195312 552.199219 L 512.546875 552.347656 L 515.394531 551.597656 L 517.796875 549.796875 L 518.320312 548.824219 L 518.46875 547.625 L 518.171875 543.5 L 518.171875 488.222656 L 517.421875 482.972656 L 516.820312 481.921875 L 515.769531 481.398438 L 511.046875 481.773438 L 458.171875 481.625 L 456.21875 480.273438 L 455.695312 479.222656 L 455.546875 477.5 L 456.144531 475.847656 L 456.96875 475.023438 L 459.21875 474.273438 "/></clipPath><clipPath id="ae2c8c349d"><path d="M 456.253906 592.214844 L 526.605469 592.214844 L 526.605469 677.957031 L 456.253906 677.957031 Z M 456.253906 592.214844 "/></clipPath><clipPath id="a3aaba3c75"><path d="M 460.082031 592.292969 L 517.082031 592.214844 L 521.730469 593.417969 L 524.28125 594.839844 L 525.554688 596.867188 L 526.304688 601.515625 L 526.605469 665.714844 L 525.855469 672.167969 L 525.253906 673.816406 L 524.582031 674.792969 L 523.230469 675.992188 L 521.054688 676.890625 L 514.605469 677.640625 L 465.855469 677.792969 L 461.730469 677.265625 L 459.179688 675.765625 L 457.457031 673.367188 L 456.707031 669.917969 L 456.332031 663.992188 L 456.253906 598.589844 L 456.40625 596.265625 L 457.082031 594.617188 L 458.957031 593.265625 L 461.28125 593.265625 L 463.15625 594.691406 L 463.832031 596.339844 L 463.753906 597.464844 L 463.082031 599.117188 L 461.65625 600.242188 L 460.53125 600.542969 L 458.804688 600.316406 L 457.304688 599.339844 L 456.628906 598.367188 L 456.332031 596.640625 L 456.855469 594.917969 L 457.605469 594.015625 L 459.707031 593.117188 L 460.90625 593.191406 L 462.480469 593.941406 L 463.53125 595.367188 L 463.832031 596.492188 L 463.753906 667.816406 L 464.28125 670.066406 L 465.332031 670.589844 L 470.054688 670.214844 L 513.40625 670.367188 L 516.253906 669.617188 L 518.65625 667.816406 L 519.179688 666.839844 L 519.332031 665.640625 L 519.03125 661.515625 L 519.03125 606.242188 L 518.28125 600.992188 L 517.679688 599.941406 L 516.628906 599.417969 L 511.90625 599.792969 L 459.03125 599.640625 L 457.082031 598.292969 L 456.554688 597.242188 L 456.40625 595.515625 L 457.003906 593.867188 L 457.832031 593.042969 L 460.082031 592.292969 "/></clipPath><clipPath id="766a887ca3"><path d="M 551.453125 239.152344 L 903.332031 239.152344 L 903.332031 334.691406 L 551.453125 334.691406 Z M 551.453125 239.152344 "/></clipPath><clipPath id="8222f8d6de"><path d="M 553.949219 285.675781 C 584.925781 267.523438 642.074219 239.925781 648.898438 239.398438 C 649.875 239.398438 650.101562 239.625 650.625 239.925781 C 651.300781 240.375 652.050781 241.273438 652.273438 242.023438 C 652.5 242.625 652.574219 243.226562 652.425781 243.824219 C 652.273438 244.574219 651.976562 245.175781 651.074219 246.074219 C 648.675781 248.550781 641.175781 252.300781 634.050781 256.351562 C 622.648438 262.875 601.800781 272.550781 588.675781 280.726562 C 577.949219 287.398438 565.574219 296.101562 560.699219 300.75 C 558.601562 302.773438 558.300781 304.949219 556.875 305.625 C 555.824219 306.074219 554.324219 305.851562 553.425781 305.398438 C 552.675781 304.949219 552.074219 303.976562 551.773438 303.300781 C 551.550781 302.699219 551.550781 302.101562 551.699219 301.5 C 551.851562 300.75 552.148438 299.699219 553.050781 299.25 C 555.375 298.050781 563.398438 300.375 568.875 300.300781 C 574.949219 300.300781 580.574219 299.476562 587.851562 298.726562 C 597.976562 297.601562 612.601562 295.800781 623.851562 294.074219 C 633.976562 292.5 643.574219 290.324219 652.5 288.976562 C 660.449219 287.699219 671.324219 284.699219 674.925781 285.976562 C 676.273438 286.5 676.949219 287.550781 677.324219 288.523438 C 677.625 289.351562 677.398438 290.476562 677.101562 291.148438 C 676.875 291.75 676.574219 291.976562 675.976562 292.574219 C 674.324219 294 669.824219 296.476562 666 299.398438 C 660.300781 303.675781 652.199219 311.773438 645.375 316.273438 C 639.523438 320.175781 627.523438 324.601562 627.824219 325.351562 C 628.199219 326.398438 648.75 320.25 662.550781 316.425781 C 683.023438 310.800781 730.5 295.125 738.449219 294.300781 C 739.949219 294.148438 740.324219 294.074219 741.148438 294.523438 C 741.976562 294.976562 742.949219 296.324219 743.175781 297.300781 C 743.398438 298.125 743.101562 299.175781 742.648438 299.925781 C 742.199219 300.601562 741.449219 301.199219 740.550781 301.5 C 739.199219 301.875 737.101562 300.976562 735.074219 301.199219 C 732.449219 301.351562 727.949219 303.601562 726.074219 303.148438 C 725.023438 302.925781 724.425781 302.175781 724.050781 301.425781 C 723.675781 300.675781 723.523438 299.625 723.675781 298.800781 C 723.898438 297.976562 724.574219 297.074219 725.175781 296.550781 C 725.699219 296.175781 726.074219 296.023438 726.824219 295.949219 C 728.699219 295.648438 732 296.625 736.199219 296.851562 C 744.601562 297.300781 759.824219 297.226562 774.300781 297.226562 C 793.648438 297.148438 825.074219 298.648438 841.726562 296.175781 C 851.925781 294.601562 858.148438 291.148438 865.875 289.125 C 872.925781 287.324219 882.601562 284.175781 886.125 284.398438 C 887.398438 284.476562 888 284.699219 888.675781 285.226562 C 889.273438 285.75 889.875 286.726562 889.949219 287.550781 C 890.101562 288.375 889.875 289.425781 889.425781 290.175781 C 888.976562 290.851562 888.226562 291.675781 887.324219 291.75 C 885.601562 291.824219 881.324219 288.824219 879.824219 287.25 C 878.851562 286.273438 878.25 285.148438 878.25 284.101562 C 878.175781 283.273438 878.699219 282.226562 879.226562 281.625 C 879.601562 281.175781 879.976562 280.949219 880.726562 280.648438 C 882.148438 280.125 885 280.125 887.625 279.976562 C 891.226562 279.75 898.050781 279 900.375 279.75 C 901.351562 280.050781 901.875 280.5 902.324219 281.175781 C 902.699219 281.773438 903.074219 282.675781 903 283.425781 C 902.851562 284.398438 902.101562 285.976562 901.273438 286.5 C 900.375 287.023438 898.726562 287.175781 897.75 286.800781 C 896.773438 286.351562 895.726562 285.074219 895.574219 284.023438 C 895.351562 282.976562 895.949219 281.398438 896.625 280.648438 C 897.148438 280.050781 897.976562 279.675781 898.726562 279.601562 C 899.476562 279.523438 900.449219 279.675781 901.125 280.050781 C 901.726562 280.425781 902.398438 281.175781 902.699219 281.851562 C 903 282.523438 903.148438 283.5 902.851562 284.25 C 902.550781 285.148438 901.875 286.199219 900.523438 286.875 C 897.226562 288.375 883.726562 288.824219 880.574219 287.699219 C 879.449219 287.25 879 286.574219 878.625 285.898438 C 878.324219 285.375 878.175781 284.773438 878.25 284.101562 C 878.25 283.351562 878.699219 282.226562 879.226562 281.625 C 879.601562 281.175781 880.125 280.800781 880.726562 280.648438 C 881.398438 280.425781 882.601562 280.273438 883.351562 280.726562 C 884.25 281.25 884.476562 284.023438 885.226562 284.550781 C 885.75 284.851562 886.425781 284.324219 887.023438 284.476562 C 887.773438 284.625 888.824219 285.148438 889.273438 285.898438 C 889.800781 286.726562 890.101562 288.375 889.800781 289.351562 C 889.574219 290.175781 889.273438 290.625 888.148438 291.375 C 883.273438 294.523438 858.898438 301.273438 841.875 303.675781 C 821.550781 306.449219 793.648438 304.648438 774.226562 304.726562 C 759.523438 304.726562 743.625 304.800781 735.375 304.273438 C 731.550781 304.050781 728.851562 303.898438 726.976562 303.375 C 725.851562 303.074219 725.101562 302.773438 724.574219 302.175781 C 724.050781 301.574219 723.675781 300.449219 723.601562 299.699219 C 723.523438 299.023438 723.675781 298.5 723.976562 297.898438 C 724.5 297.148438 725.476562 296.476562 726.824219 295.949219 C 729.675781 294.824219 738.898438 293.851562 741.148438 294.523438 C 741.898438 294.75 742.125 295.125 742.5 295.648438 C 742.949219 296.25 743.25 297.449219 743.25 298.199219 C 743.25 298.800781 743.023438 299.398438 742.648438 299.925781 C 742.199219 300.523438 741.898438 300.824219 740.550781 301.5 C 731.476562 306 640.726562 339 627.148438 334.050781 C 623.175781 332.625 620.925781 328.949219 621.449219 325.5 C 622.648438 317.773438 652.273438 300 661.726562 293.175781 C 666.601562 289.648438 670.875 286.351562 673.125 285.824219 C 673.949219 285.601562 674.324219 285.824219 674.925781 285.976562 C 675.449219 286.199219 676.050781 286.5 676.425781 286.949219 C 676.875 287.550781 677.398438 288.601562 677.476562 289.425781 C 677.476562 290.25 677.101562 291.300781 676.574219 291.898438 C 676.050781 292.574219 675.601562 292.726562 674.324219 293.25 C 668.476562 295.273438 640.050781 299.25 624.824219 301.5 C 611.773438 303.449219 598.875 305.101562 588.449219 306.148438 C 580.648438 306.976562 573.523438 308.25 567.898438 307.726562 C 563.851562 307.425781 560.175781 305.25 557.699219 305.175781 C 556.199219 305.101562 555.226562 306 554.25 305.773438 C 553.425781 305.550781 552.601562 304.800781 552.148438 304.125 C 551.699219 303.375 551.476562 302.550781 551.699219 301.5 C 552.074219 299.773438 553.574219 297.449219 556.050781 294.898438 C 561.226562 289.574219 573.449219 281.398438 585.074219 274.125 C 600.898438 264.300781 635.925781 248.175781 643.574219 242.925781 C 645.601562 241.5 645.898438 240.226562 647.175781 239.773438 C 648.226562 239.398438 649.726562 239.398438 650.625 239.925781 C 651.523438 240.449219 652.351562 241.949219 652.5 242.925781 C 652.574219 243.75 652.125 244.800781 651.75 245.476562 C 651.375 246 651.226562 246 650.324219 246.601562 C 644.25 250.351562 588.898438 273.898438 573 282.523438 C 565.5 286.574219 560.25 291.601562 557.101562 292.425781 C 555.898438 292.726562 555.226562 292.648438 554.476562 292.273438 C 553.726562 291.976562 552.898438 291.226562 552.523438 290.476562 C 552.148438 289.726562 552.074219 288.601562 552.300781 287.773438 C 552.523438 287.023438 553.949219 285.675781 553.949219 285.675781 "/></clipPath><clipPath id="f1540ce042"><path d="M 539.527344 362.453125 L 894.820312 362.453125 L 894.820312 458.457031 L 539.527344 458.457031 Z M 539.527344 362.453125 "/></clipPath><clipPath id="da0d89649d"><path d="M 539.773438 429 C 542.550781 411.449219 544.800781 403.800781 546.976562 398.023438 C 548.851562 392.925781 551.851562 388.125 553.425781 384.074219 C 554.550781 380.925781 554.851562 378.300781 555.898438 375.675781 C 556.875 373.199219 557.550781 370.425781 559.273438 368.550781 C 561.074219 366.675781 564.148438 365.476562 566.625 364.574219 C 568.800781 363.75 570.675781 363.523438 573.074219 363.226562 C 576.074219 362.773438 579.675781 362.324219 583.199219 362.699219 C 587.175781 363.074219 592.050781 364.351562 595.5 365.773438 C 598.351562 366.898438 600.824219 368.398438 602.773438 369.75 C 604.273438 370.875 605.398438 371.324219 606.375 373.125 C 608.25 376.726562 609.449219 386.25 608.925781 392.25 C 608.476562 397.726562 606 402.898438 604.199219 407.699219 C 602.625 411.976562 600.375 415.875 598.949219 419.699219 C 597.75 423 597.300781 427.199219 595.949219 429.226562 C 595.199219 430.425781 594.375 431.25 593.324219 431.550781 C 592.351562 431.773438 590.699219 431.175781 589.949219 430.726562 C 589.425781 430.351562 589.125 429.824219 588.976562 429.226562 C 588.75 428.476562 588.375 427.273438 588.976562 426.523438 C 590.324219 424.800781 597.976562 425.175781 602.851562 423.523438 C 608.625 421.5 614.175781 418.5 621.226562 414.824219 C 631.050781 409.648438 649.351562 399 655.949219 394.726562 C 658.648438 392.925781 660 391.273438 661.574219 390.675781 C 662.550781 390.226562 663.375 390.074219 664.199219 390.226562 C 665.023438 390.375 665.925781 391.050781 666.449219 391.648438 C 666.824219 392.101562 667.050781 392.625 667.125 393.300781 C 667.199219 394.050781 666.976562 395.175781 666.601562 395.851562 C 666.300781 396.449219 665.25 396.976562 665.324219 397.125 C 665.476562 397.273438 667.726562 395.25 669 395.699219 C 671.851562 396.601562 674.023438 405.824219 678.675781 410.699219 C 684.898438 417.226562 699.449219 424.949219 705.226562 429.523438 C 708.226562 431.851562 710.476562 432.824219 711.675781 435.300781 C 712.949219 437.699219 713.101562 441.148438 712.574219 444.148438 C 711.898438 447.523438 708.824219 452.625 707.25 454.574219 C 706.574219 455.476562 705.898438 456 705.226562 456.300781 C 704.625 456.523438 704.023438 456.601562 703.425781 456.449219 C 702.523438 456.148438 701.101562 455.25 700.648438 454.351562 C 700.199219 453.449219 699.898438 451.800781 700.726562 450.824219 C 703.425781 448.199219 721.351562 452.25 730.800781 449.476562 C 740.398438 446.773438 752.023438 438.300781 757.875 434.175781 C 761.023438 432 763.050781 430.351562 764.625 428.398438 C 765.75 427.050781 766.351562 425.925781 766.949219 424.351562 C 767.625 422.398438 768.898438 419.625 768.300781 417.375 C 767.699219 414.824219 764.101562 411.449219 762.148438 410.023438 C 760.949219 409.050781 760.050781 408.75 758.773438 408.375 C 757.351562 408 755.25 407.175781 753.976562 407.773438 C 752.773438 408.300781 751.800781 410.101562 751.351562 411.601562 C 750.824219 413.175781 750.523438 415.125 751.199219 417 C 752.25 419.773438 755.851562 423.375 759.148438 425.925781 C 762.898438 428.773438 768 430.648438 772.875 432.824219 C 778.125 435.074219 784.875 437.550781 789.824219 439.125 C 793.574219 440.25 798 442.648438 799.949219 441.75 C 801.226562 441.074219 801.148438 439.273438 801.824219 437.398438 C 803.101562 433.875 803.773438 426.898438 805.800781 422.023438 C 807.898438 416.925781 810.375 412.648438 814.273438 407.398438 C 819.601562 399.976562 828.449219 387.824219 836.398438 382.875 C 842.550781 378.976562 849.226562 378.523438 855.976562 377.101562 C 862.726562 375.601562 870.601562 374.625 876.898438 374.023438 C 882 373.5 888.148438 372.976562 890.851562 373.351562 C 891.976562 373.5 892.5 373.574219 893.101562 374.023438 C 893.773438 374.476562 894.300781 375.226562 894.523438 375.976562 C 894.75 376.648438 894.75 377.625 894.523438 378.375 C 894.226562 379.050781 893.625 379.800781 893.023438 380.25 C 892.351562 380.625 891.449219 380.851562 890.699219 380.851562 C 889.949219 380.773438 889.050781 380.476562 888.449219 379.875 C 887.773438 379.199219 887.175781 377.550781 887.25 376.574219 C 887.25 375.824219 887.699219 375 888.300781 374.476562 C 889.050781 373.800781 890.625 373.199219 891.675781 373.425781 C 892.648438 373.574219 893.925781 374.699219 894.375 375.601562 C 894.75 376.273438 894.75 377.25 894.601562 378 C 894.449219 378.675781 893.925781 379.5 893.324219 380.023438 C 892.726562 380.476562 892.273438 380.550781 891.074219 380.851562 C 887.699219 381.601562 876.75 381.675781 870.75 382.351562 C 865.949219 382.875 862.425781 383.398438 857.925781 384.300781 C 852.675781 385.351562 846.675781 385.125 841.351562 388.351562 C 834.148438 392.625 825.675781 404.476562 820.726562 411.148438 C 817.199219 415.875 814.949219 419.324219 813.074219 423.976562 C 811.050781 428.773438 810.449219 435.300781 809.023438 439.5 C 808.050781 442.5 807.75 445.425781 805.949219 447 C 804.148438 448.574219 801 449.023438 798.148438 449.023438 C 794.851562 449.023438 791.25 447.449219 787.199219 446.101562 C 781.949219 444.449219 775.050781 442.050781 769.351562 439.425781 C 763.800781 436.875 757.800781 434.476562 753.523438 430.726562 C 749.476562 427.273438 745.351562 422.023438 744.074219 417.976562 C 743.101562 415.050781 743.625 412.199219 744.148438 409.5 C 744.601562 406.875 745.125 403.574219 747 402 C 748.875 400.425781 752.625 400.351562 755.324219 400.351562 C 757.726562 400.351562 760.125 400.949219 762.226562 401.773438 C 764.25 402.523438 766.050781 403.574219 767.773438 405.074219 C 769.726562 406.726562 771.824219 409.351562 773.175781 411.523438 C 774.375 413.550781 775.351562 415.574219 775.648438 417.601562 C 775.875 419.324219 775.425781 421.050781 775.050781 422.773438 C 774.675781 424.574219 774.148438 426.449219 773.324219 428.175781 C 772.425781 430.199219 771.226562 432.148438 769.5 434.023438 C 767.550781 436.351562 764.699219 438.449219 761.773438 440.550781 C 758.398438 443.023438 754.574219 445.273438 750.148438 447.675781 C 744.675781 450.675781 737.773438 455.324219 731.324219 456.898438 C 725.023438 458.476562 716.175781 458.398438 712.050781 457.351562 C 709.800781 456.75 708.523438 454.5 707.25 454.574219 C 706.425781 454.648438 705.976562 456 705.226562 456.300781 C 704.398438 456.523438 703.351562 456.523438 702.601562 456.148438 C 701.773438 455.851562 701.023438 455.101562 700.648438 454.351562 C 700.273438 453.601562 700.199219 452.773438 700.425781 451.726562 C 700.875 449.625 704.398438 445.949219 705.226562 443.550781 C 705.898438 441.824219 706.726562 440.773438 705.976562 438.976562 C 703.726562 433.574219 679.949219 422.699219 672.523438 414.898438 C 667.574219 409.726562 664.351562 404.25 662.699219 399.675781 C 661.5 396.449219 660.675781 391.875 661.574219 390.675781 C 662.023438 390 663.375 390 664.199219 390.226562 C 665.175781 390.449219 666.449219 391.574219 666.898438 392.398438 C 667.199219 392.925781 667.273438 393.523438 667.199219 394.199219 C 667.050781 394.949219 666.75 395.699219 666.074219 396.601562 C 664.875 398.023438 662.773438 399.226562 659.699219 401.175781 C 652.800781 405.675781 634.726562 416.324219 624.375 421.648438 C 616.574219 425.550781 608.773438 430.425781 603.523438 430.949219 C 600.449219 431.25 597.523438 428.699219 595.949219 429.226562 C 595.050781 429.523438 594.898438 430.800781 594.226562 431.175781 C 593.476562 431.625 592.351562 431.699219 591.523438 431.550781 C 590.773438 431.324219 589.875 430.726562 589.351562 430.050781 C 588.898438 429.300781 588.75 428.398438 588.75 427.425781 C 588.75 426.074219 589.199219 424.800781 589.875 422.550781 C 591.675781 416.773438 600.449219 399.148438 601.5 392.550781 C 601.949219 389.476562 601.351562 387.976562 600.976562 385.5 C 600.601562 382.648438 600.523438 378.375 599.023438 376.273438 C 597.75 374.550781 595.726562 373.949219 593.550781 372.976562 C 590.773438 371.773438 586.726562 370.5 583.5 370.125 C 580.425781 369.824219 577.5 370.125 574.5 370.574219 C 571.425781 370.949219 567.449219 370.5 565.125 372.601562 C 562.199219 375.226562 562.050781 382.574219 560.175781 387.226562 C 558.375 391.726562 555.898438 395.398438 554.101562 400.125 C 552.074219 405.523438 550.050781 412.574219 548.851562 418.050781 C 547.800781 422.699219 548.101562 428.550781 547.050781 430.875 C 546.523438 431.925781 546 432.449219 545.25 432.824219 C 544.5 433.199219 543.375 433.351562 542.550781 433.125 C 541.800781 432.898438 540.898438 432.226562 540.375 431.550781 C 539.925781 430.875 539.773438 429 539.773438 429 "/></clipPath><clipPath id="a3279092ad"><path d="M 570.046875 503 L 907.34375 503 L 907.34375 551.9375 L 570.046875 551.9375 Z M 570.046875 503 "/></clipPath><clipPath id="d7ef6b1f95"><path d="M 576.074219 525.75 C 599.550781 538.574219 619.199219 537.148438 623.773438 539.925781 C 625.425781 540.976562 624.523438 542.625 626.25 543.523438 C 631.425781 546.300781 656.851562 544.648438 666.226562 544.199219 C 671.398438 543.898438 674.175781 544.5 678.226562 542.773438 C 683.773438 540.449219 691.273438 529.875 695.550781 528.675781 C 697.574219 528.148438 699.226562 528.675781 700.5 529.351562 C 701.699219 529.949219 701.925781 531.675781 703.199219 532.425781 C 704.773438 533.398438 706.875 533.550781 709.648438 533.925781 C 714.449219 534.523438 723.449219 535.5 729.300781 534.523438 C 734.25 533.699219 739.875 531.75 742.574219 529.5 C 744.226562 528.148438 744.75 526.800781 745.425781 524.699219 C 746.476562 521.550781 748.800781 514.199219 746.699219 511.800781 C 744.449219 509.023438 734.476562 509.699219 730.425781 510.675781 C 727.726562 511.351562 725.773438 512.476562 724.199219 514.5 C 722.175781 516.976562 719.699219 522.523438 720.523438 525.375 C 721.273438 528.074219 724.050781 529.800781 727.726562 531.523438 C 735 535.125 752.925781 537.148438 764.324219 539.023438 C 774.300781 540.601562 785.851562 542.023438 792.375 542.476562 C 795.976562 542.773438 796.425781 542.699219 800.625 542.699219 C 814.875 542.925781 878.625 543.898438 894 542.925781 C 899.023438 542.625 901.949219 541.199219 904.050781 541.574219 C 905.023438 541.800781 905.625 542.175781 906.148438 542.773438 C 906.675781 543.300781 907.050781 544.199219 907.125 544.949219 C 907.199219 545.699219 907.050781 546.601562 906.523438 547.273438 C 906 548.023438 904.574219 549 903.523438 549 C 902.476562 549.074219 900.976562 548.324219 900.375 547.5 C 899.699219 546.675781 899.476562 545.023438 899.851562 544.050781 C 900.148438 543.074219 901.425781 541.949219 902.398438 541.648438 C 903.449219 541.425781 905.101562 541.800781 905.851562 542.476562 C 906.601562 543.148438 907.199219 544.726562 907.125 545.773438 C 906.976562 546.75 906.226562 547.875 905.101562 548.625 C 903 549.976562 899.625 549.976562 894 550.425781 C 877.125 551.699219 815.101562 551.476562 791.550781 549.976562 C 779.023438 549.148438 771.226562 547.726562 762.898438 546.375 C 756.300781 545.25 751.5 544.199219 745.351562 542.851562 C 738.449219 541.273438 729.074219 540.523438 723.449219 537.675781 C 719.101562 535.425781 714.75 531.898438 713.398438 528.976562 C 712.5 526.949219 712.949219 525.300781 713.398438 522.976562 C 714.226562 519.148438 716.699219 512.023438 719.851562 508.648438 C 722.550781 505.800781 726.601562 504.148438 730.199219 503.324219 C 733.726562 502.574219 737.699219 503.324219 741.148438 503.773438 C 744.300781 504.226562 748.050781 504.375 750.148438 505.800781 C 751.875 506.925781 753.074219 508.425781 753.675781 510.523438 C 754.648438 513.601562 753.75 519.75 753.375 522.976562 C 753.074219 525 752.851562 526.351562 752.175781 528 C 751.5 529.800781 750.449219 531.898438 749.175781 533.324219 C 748.050781 534.75 746.925781 535.5 744.898438 536.625 C 741.449219 538.425781 734.324219 541.199219 729.449219 541.949219 C 725.25 542.625 721.273438 541.949219 717.601562 541.800781 C 714.375 541.726562 711.601562 541.800781 708.675781 541.351562 C 705.675781 540.976562 701.550781 540.824219 699.675781 539.398438 C 698.324219 538.351562 698.324219 535.050781 697.351562 534.898438 C 696.148438 534.824219 694.949219 538.875 692.851562 540.824219 C 689.773438 543.824219 684.226562 548.25 679.574219 550.050781 C 675.300781 551.699219 671.550781 551.398438 666.148438 551.699219 C 658.351562 552.074219 645.148438 551.625 637.125 551.175781 C 631.351562 550.875 625.875 551.101562 622.425781 549.75 C 620.25 548.925781 619.949219 547.050781 617.625 546.148438 C 613.5 544.574219 604.125 545.398438 598.648438 544.574219 C 594.375 543.898438 590.925781 543.375 587.398438 541.949219 C 584.023438 540.601562 580.800781 538.425781 577.949219 536.476562 C 575.398438 534.75 572.101562 532.726562 570.976562 531.148438 C 570.300781 530.25 570.074219 529.425781 570.074219 528.601562 C 570.148438 527.773438 570.601562 526.726562 571.125 526.125 C 571.726562 525.523438 572.699219 525.074219 573.523438 525 C 574.351562 524.925781 576.074219 525.75 576.074219 525.75 "/></clipPath><clipPath id="f073f043cf"><path d="M 559.003906 602.5 L 905.933594 602.5 L 905.933594 655.472656 L 559.003906 655.472656 Z M 559.003906 602.5 "/></clipPath><clipPath id="c848c3ada4"><path d="M 560.023438 648.898438 C 570.375 636.601562 571.351562 632.25 573.898438 627.824219 C 577.273438 622.273438 583.875 613.425781 586.875 609.898438 C 588.226562 608.25 588.976562 607.273438 590.101562 606.523438 C 590.925781 606 591.75 605.550781 592.574219 605.550781 C 593.398438 605.550781 594.449219 605.925781 595.050781 606.523438 C 595.648438 607.050781 596.175781 608.023438 596.324219 608.851562 C 596.398438 609.675781 595.726562 610.273438 595.648438 611.476562 C 595.574219 613.875 597 618.601562 597.148438 622.648438 C 597.300781 627.449219 593.625 635.398438 596.101562 638.476562 C 598.648438 641.550781 607.050781 641.625 612.523438 640.800781 C 618.601562 639.976562 623.773438 635.023438 630.75 632.398438 C 639.601562 629.023438 655.199219 623.324219 661.726562 623.175781 C 664.726562 623.101562 666.523438 623.925781 668.25 624.75 C 669.601562 625.351562 670.648438 626.023438 671.476562 627.148438 C 672.375 628.273438 671.851562 630.449219 673.273438 631.5 C 675.976562 633.523438 683.625 632.773438 690.523438 633 C 701.023438 633.449219 720.898438 633.300781 729.898438 632.625 C 734.625 632.25 737.550781 630.675781 740.625 631.050781 C 743.175781 631.351562 744.226562 633.75 747.226562 633.75 C 754.050781 633.75 768.976562 625.125 780 620.101562 C 791.625 614.851562 807 604.648438 815.023438 603 C 819 602.175781 821.773438 602.476562 824.324219 603.375 C 826.351562 604.050781 828.074219 605.398438 829.273438 606.976562 C 830.476562 608.550781 830.25 611.625 831.523438 612.75 C 832.726562 613.726562 834.148438 613.648438 836.398438 613.800781 C 841.800781 614.25 857.699219 611.324219 863.625 612 C 866.550781 612.300781 868.648438 612.601562 870.148438 613.949219 C 871.648438 615.300781 872.101562 617.625 872.699219 620.175781 C 873.601562 623.773438 871.726562 631.5 873.75 634.050781 C 875.175781 635.851562 877.648438 636.300781 880.5 636.300781 C 885.675781 636.226562 898.425781 628.5 901.875 628.425781 C 903.074219 628.351562 903.601562 628.648438 904.199219 629.101562 C 904.800781 629.550781 905.398438 630.300781 905.550781 631.050781 C 905.773438 632.023438 905.550781 633.675781 904.875 634.5 C 904.273438 635.324219 902.699219 636 901.648438 635.851562 C 900.675781 635.773438 899.25 634.875 898.726562 633.976562 C 898.199219 633.074219 898.199219 631.425781 898.648438 630.449219 C 899.101562 629.550781 900.523438 628.648438 901.5 628.425781 C 902.324219 628.273438 903.226562 628.5 903.824219 628.875 C 904.5 629.25 905.175781 630 905.476562 630.675781 C 905.773438 631.351562 905.925781 632.324219 905.625 633.074219 C 905.324219 633.976562 904.5 634.800781 903.300781 635.699219 C 900.601562 637.5 893.25 640.125 889.050781 641.476562 C 885.75 642.601562 883.050781 643.648438 880.125 643.726562 C 877.199219 643.875 873.601562 643.648438 871.351562 642.148438 C 869.023438 640.726562 867.226562 637.351562 866.398438 634.875 C 865.726562 632.851562 866.398438 630.898438 866.023438 628.648438 C 865.648438 625.875 866.324219 621.300781 863.925781 619.5 C 859.648438 616.351562 842.023438 621.898438 835.351562 621.226562 C 831.675781 620.925781 828.898438 620.851562 826.875 619.125 C 824.699219 617.324219 824.773438 611.925781 822.898438 610.5 C 821.550781 609.449219 820.125 609.449219 817.800781 609.824219 C 811.199219 610.949219 793.726562 622.050781 783 627 C 773.925781 631.199219 764.625 635.625 757.574219 637.875 C 752.851562 639.449219 748.351562 641.101562 745.351562 640.648438 C 743.550781 640.425781 742.875 638.699219 741.074219 638.398438 C 738.300781 637.949219 734.851562 639.75 729.976562 640.125 C 720.75 640.875 701.023438 641.023438 690.074219 640.5 C 682.351562 640.125 674.25 640.800781 670.425781 638.476562 C 668.101562 636.976562 667.800781 633.675781 666.375 632.25 C 665.398438 631.273438 664.648438 630.375 663.226562 630.226562 C 660.75 630 656.773438 632.851562 652.800781 634.125 C 647.398438 635.851562 640.199219 637.050781 633.75 639.226562 C 626.699219 641.625 619.425781 647.324219 612.226562 648.226562 C 605.550781 649.050781 595.800781 648.148438 592.125 645.375 C 589.726562 643.574219 589.273438 641.101562 588.675781 637.726562 C 587.625 631.949219 590.550781 618.226562 590.324219 612.898438 C 590.25 610.351562 588.898438 608.398438 589.5 607.199219 C 589.949219 606.226562 591.523438 605.550781 592.574219 605.550781 C 593.625 605.550781 595.050781 606.300781 595.648438 607.199219 C 596.25 608.023438 596.476562 609.148438 596.101562 610.648438 C 594.976562 614.773438 584.625 624.824219 580.648438 631.199219 C 577.574219 636.148438 576.449219 641.175781 573.523438 645.226562 C 570.824219 648.976562 566.175781 654 564.074219 654.976562 C 563.398438 655.351562 562.949219 655.273438 562.351562 655.199219 C 561.601562 655.050781 560.550781 654.523438 559.949219 653.925781 C 559.425781 653.25 559.050781 652.199219 559.050781 651.375 C 559.050781 650.550781 560.023438 648.898438 560.023438 648.898438 "/></clipPath></defs><g id="a70718f411"><rect x="0" width="1440" y="0" height="809.999993" style="fill:#ffffff;fill-opacity:1;stroke:none;"/><rect x="0" width="1440" y="0" height="809.999993" style="fill:#000000;fill-opacity:1;stroke:none;"/><g clip-rule="nonzero" clip-path="url(#d846dd23fd)"><g clip-rule="nonzero" clip-path="url(#cd3cf4ce6d)"><path style=" stroke:none;fill-rule:nonzero;fill:#ffffff;fill-opacity:1;" d="M 415.125 44.289062 L 1024.875 44.289062 L 1024.875 754.074219 L 415.125 754.074219 Z M 415.125 44.289062 "/></g></g><g clip-rule="nonzero" clip-path="url(#4564e32a3f)"><g clip-rule="nonzero" clip-path="url(#48e6e6c4b6)"><path style=" stroke:none;fill-rule:nonzero;fill:#000000;fill-opacity:1;" d="M 415.125 44.289062 L 1024.8125 44.289062 L 1024.8125 765.710938 L 415.125 765.710938 Z M 415.125 44.289062 "/></g></g><g clip-rule="nonzero" clip-path="url(#e0f3dea171)"><g clip-rule="nonzero" clip-path="url(#e15db8dc9b)"><path style=" stroke:none;fill-rule:nonzero;fill:#000000;fill-opacity:1;" d="M 453.675781 238.164062 L 524.023438 238.164062 L 524.023438 323.625 L 453.675781 323.625 Z M 453.675781 238.164062 "/></g></g><g style="fill:#000000;fill-opacity:1;"><g transform="translate(489.71007, 184.705445)"><path style="stroke:none" d="M 62.234375 -84.71875 C 62.910156 -84.632812 63.484375 -84.335938 63.953125 -83.828125 C 64.421875 -83.316406 64.695312 -82.722656 64.78125 -82.046875 C 64.863281 -81.285156 64.925781 -80.289062 64.96875 -79.0625 C 65.007812 -77.832031 65.03125 -76.582031 65.03125 -75.3125 C 65.03125 -74.050781 65.03125 -72.890625 65.03125 -71.828125 C 65.03125 -70.765625 64.988281 -69.851562 64.90625 -69.09375 C 64.820312 -67.40625 63.804688 -66.472656 61.859375 -66.296875 C 61.097656 -66.210938 59.382812 -66.109375 56.71875 -65.984375 C 54.050781 -65.859375 51.359375 -65.710938 48.640625 -65.546875 C 47.796875 -65.453125 47.160156 -65.191406 46.734375 -64.765625 C 46.316406 -64.347656 46.023438 -63.882812 45.859375 -63.375 C 44.585938 -58.125 43.25 -52.132812 41.84375 -45.40625 C 40.445312 -38.675781 39.132812 -31.625 37.90625 -24.25 C 36.6875 -16.882812 35.648438 -9.476562 34.796875 -2.03125 C 34.710938 -0.757812 33.992188 -0.125 32.640625 -0.125 C 32.128906 -0.125 30.960938 -0.3125 29.140625 -0.6875 C 27.328125 -1.070312 25.46875 -1.519531 23.5625 -2.03125 C 21.65625 -2.539062 20.238281 -2.960938 19.3125 -3.296875 C 18.71875 -3.554688 18.226562 -4.003906 17.84375 -4.640625 C 17.46875 -5.273438 17.28125 -5.890625 17.28125 -6.484375 C 17.445312 -10.285156 17.800781 -14.535156 18.34375 -19.234375 C 18.894531 -23.941406 19.613281 -28.8125 20.5 -33.84375 C 21.394531 -38.882812 22.347656 -43.835938 23.359375 -48.703125 C 24.378906 -53.578125 25.398438 -58.046875 26.421875 -62.109375 C 26.421875 -62.109375 26.441406 -62.210938 26.484375 -62.421875 C 26.523438 -62.640625 26.546875 -62.875 26.546875 -63.125 C 26.546875 -64.144531 25.953125 -64.65625 24.765625 -64.65625 C 24.765625 -64.65625 24.191406 -64.632812 23.046875 -64.59375 C 21.910156 -64.550781 20.617188 -64.484375 19.171875 -64.390625 C 17.734375 -64.304688 16.460938 -64.242188 15.359375 -64.203125 C 14.265625 -64.160156 13.675781 -64.140625 13.59375 -64.140625 C 11.976562 -64.140625 11.085938 -64.898438 10.921875 -66.421875 C 10.585938 -68.203125 10.375 -70.445312 10.28125 -73.15625 C 10.195312 -75.863281 10.15625 -78.023438 10.15625 -79.640625 C 10.15625 -80.316406 10.367188 -80.953125 10.796875 -81.546875 C 11.222656 -82.140625 11.859375 -82.476562 12.703125 -82.5625 C 15.078125 -82.976562 18.398438 -83.378906 22.671875 -83.765625 C 26.953125 -84.148438 31.671875 -84.46875 36.828125 -84.71875 C 41.992188 -84.96875 46.953125 -85.09375 51.703125 -85.09375 C 56.179688 -85.09375 59.691406 -84.96875 62.234375 -84.71875 Z M 62.234375 -84.71875 "/></g></g><g style="fill:#000000;fill-opacity:1;"><g transform="translate(546.610002, 184.705445)"><path style="stroke:none" d="M 42.796875 -68.84375 C 40.085938 -68.84375 37.503906 -67.78125 35.046875 -65.65625 C 32.597656 -63.539062 30.421875 -60.707031 28.515625 -57.15625 C 26.609375 -53.601562 25.101562 -49.707031 24 -45.46875 C 22.90625 -41.238281 22.359375 -36.960938 22.359375 -32.640625 C 22.359375 -28.148438 22.882812 -24.675781 23.9375 -22.21875 C 25 -19.769531 26.3125 -18.078125 27.875 -17.140625 C 29.445312 -16.210938 30.992188 -15.75 32.515625 -15.75 C 35.304688 -15.75 37.890625 -16.847656 40.265625 -19.046875 C 42.640625 -21.253906 44.734375 -24.195312 46.546875 -27.875 C 48.367188 -31.5625 49.765625 -35.625 50.734375 -40.0625 C 51.710938 -44.507812 52.203125 -49.019531 52.203125 -53.59375 C 52.203125 -58.84375 51.289062 -62.695312 49.46875 -65.15625 C 47.644531 -67.613281 45.421875 -68.84375 42.796875 -68.84375 Z M 35.0625 0.25 C 31.84375 0.25 28.492188 -0.425781 25.015625 -1.78125 C 21.546875 -3.132812 18.347656 -4.890625 15.421875 -7.046875 C 12.503906 -9.203125 10.285156 -11.382812 8.765625 -13.59375 C 6.734375 -16.46875 5.332031 -19.742188 4.5625 -23.421875 C 3.800781 -27.109375 3.421875 -30.648438 3.421875 -34.046875 C 3.421875 -37.171875 3.84375 -40.9375 4.6875 -45.34375 C 5.539062 -49.75 6.878906 -54.257812 8.703125 -58.875 C 10.523438 -63.488281 12.832031 -67.785156 15.625 -71.765625 C 18.414062 -75.742188 21.738281 -78.957031 25.59375 -81.40625 C 29.445312 -83.863281 33.867188 -85.09375 38.859375 -85.09375 C 40.390625 -85.09375 42.425781 -84.710938 44.96875 -83.953125 C 47.507812 -83.191406 50.195312 -82.132812 53.03125 -80.78125 C 55.863281 -79.425781 58.460938 -77.878906 60.828125 -76.140625 C 63.203125 -74.410156 65.023438 -72.570312 66.296875 -70.625 C 68.160156 -67.65625 69.453125 -64.476562 70.171875 -61.09375 C 70.890625 -57.707031 71.25 -54.28125 71.25 -50.8125 C 71.25 -47.25 70.804688 -43.222656 69.921875 -38.734375 C 69.035156 -34.253906 67.679688 -29.726562 65.859375 -25.15625 C 64.035156 -20.582031 61.679688 -16.367188 58.796875 -12.515625 C 55.921875 -8.660156 52.515625 -5.566406 48.578125 -3.234375 C 44.640625 -0.910156 40.132812 0.25 35.0625 0.25 Z M 35.0625 0.25 "/></g></g><g style="fill:#000000;fill-opacity:1;"><g transform="translate(617.608028, 184.705445)"><path style="stroke:none" d="M 22.609375 0.125 C 21.765625 0.125 20.9375 0.0820312 20.125 0 C 19.320312 -0.0820312 18.582031 -0.296875 17.90625 -0.640625 C 16.71875 -1.316406 15.234375 -2.394531 13.453125 -3.875 C 11.679688 -5.351562 9.945312 -6.9375 8.25 -8.625 C 6.5625 -10.320312 5.082031 -11.804688 3.8125 -13.078125 C 2.96875 -13.929688 2.546875 -14.992188 2.546875 -16.265625 C 2.546875 -18.117188 2.773438 -20.78125 3.234375 -24.25 C 3.703125 -27.726562 4.316406 -31.5625 5.078125 -35.75 C 5.835938 -39.945312 6.660156 -44.203125 7.546875 -48.515625 C 8.441406 -52.835938 9.3125 -56.816406 10.15625 -60.453125 C 11.007812 -64.097656 11.734375 -67.019531 12.328125 -69.21875 C 12.410156 -69.476562 12.453125 -69.753906 12.453125 -70.046875 C 12.453125 -70.347656 12.453125 -70.625 12.453125 -70.875 C 12.453125 -72.226562 12.363281 -73.75 12.1875 -75.4375 C 12.019531 -77.132812 11.9375 -78.15625 11.9375 -78.5 C 11.9375 -79.6875 12.445312 -80.445312 13.46875 -80.78125 C 17.019531 -82.300781 20.765625 -83.523438 24.703125 -84.453125 C 28.640625 -85.390625 31.960938 -85.859375 34.671875 -85.859375 C 39.585938 -85.859375 44.160156 -84.691406 48.390625 -82.359375 C 52.628906 -80.035156 56.351562 -77.007812 59.5625 -73.28125 C 62.78125 -69.5625 65.300781 -65.539062 67.125 -61.21875 C 68.945312 -56.90625 69.859375 -52.757812 69.859375 -48.78125 C 69.859375 -42.507812 68.609375 -36.535156 66.109375 -30.859375 C 63.609375 -25.191406 60.15625 -20.113281 55.75 -15.625 C 51.351562 -11.132812 46.316406 -7.492188 40.640625 -4.703125 C 34.972656 -1.910156 28.960938 -0.300781 22.609375 0.125 Z M 22.609375 -18.03125 C 24.984375 -18.03125 27.84375 -18.789062 31.1875 -20.3125 C 34.53125 -21.84375 37.8125 -24.128906 41.03125 -27.171875 C 44.25 -30.222656 46.9375 -34.015625 49.09375 -38.546875 C 51.25 -43.078125 52.328125 -48.347656 52.328125 -54.359375 C 52.328125 -57.578125 51.539062 -60.304688 49.96875 -62.546875 C 48.40625 -64.796875 46.351562 -66.535156 43.8125 -67.765625 C 41.28125 -68.992188 38.570312 -69.609375 35.6875 -69.609375 C 35.269531 -69.609375 34.847656 -69.609375 34.421875 -69.609375 C 33.992188 -69.609375 33.570312 -69.566406 33.15625 -69.484375 C 31.707031 -69.222656 30.859375 -68.5 30.609375 -67.3125 C 29.085938 -61.132812 27.414062 -53.875 25.59375 -45.53125 C 23.769531 -37.195312 22.222656 -28.835938 20.953125 -20.453125 C 20.953125 -20.453125 20.929688 -20.320312 20.890625 -20.0625 C 20.847656 -19.8125 20.828125 -19.601562 20.828125 -19.4375 C 20.828125 -18.5 21.421875 -18.03125 22.609375 -18.03125 Z M 22.609375 -18.03125 "/></g></g><g style="fill:#000000;fill-opacity:1;"><g transform="translate(687.208944, 184.705445)"><path style="stroke:none" d="M 42.796875 -68.84375 C 40.085938 -68.84375 37.503906 -67.78125 35.046875 -65.65625 C 32.597656 -63.539062 30.421875 -60.707031 28.515625 -57.15625 C 26.609375 -53.601562 25.101562 -49.707031 24 -45.46875 C 22.90625 -41.238281 22.359375 -36.960938 22.359375 -32.640625 C 22.359375 -28.148438 22.882812 -24.675781 23.9375 -22.21875 C 25 -19.769531 26.3125 -18.078125 27.875 -17.140625 C 29.445312 -16.210938 30.992188 -15.75 32.515625 -15.75 C 35.304688 -15.75 37.890625 -16.847656 40.265625 -19.046875 C 42.640625 -21.253906 44.734375 -24.195312 46.546875 -27.875 C 48.367188 -31.5625 49.765625 -35.625 50.734375 -40.0625 C 51.710938 -44.507812 52.203125 -49.019531 52.203125 -53.59375 C 52.203125 -58.84375 51.289062 -62.695312 49.46875 -65.15625 C 47.644531 -67.613281 45.421875 -68.84375 42.796875 -68.84375 Z M 35.0625 0.25 C 31.84375 0.25 28.492188 -0.425781 25.015625 -1.78125 C 21.546875 -3.132812 18.347656 -4.890625 15.421875 -7.046875 C 12.503906 -9.203125 10.285156 -11.382812 8.765625 -13.59375 C 6.734375 -16.46875 5.332031 -19.742188 4.5625 -23.421875 C 3.800781 -27.109375 3.421875 -30.648438 3.421875 -34.046875 C 3.421875 -37.171875 3.84375 -40.9375 4.6875 -45.34375 C 5.539062 -49.75 6.878906 -54.257812 8.703125 -58.875 C 10.523438 -63.488281 12.832031 -67.785156 15.625 -71.765625 C 18.414062 -75.742188 21.738281 -78.957031 25.59375 -81.40625 C 29.445312 -83.863281 33.867188 -85.09375 38.859375 -85.09375 C 40.390625 -85.09375 42.425781 -84.710938 44.96875 -83.953125 C 47.507812 -83.191406 50.195312 -82.132812 53.03125 -80.78125 C 55.863281 -79.425781 58.460938 -77.878906 60.828125 -76.140625 C 63.203125 -74.410156 65.023438 -72.570312 66.296875 -70.625 C 68.160156 -67.65625 69.453125 -64.476562 70.171875 -61.09375 C 70.890625 -57.707031 71.25 -54.28125 71.25 -50.8125 C 71.25 -47.25 70.804688 -43.222656 69.921875 -38.734375 C 69.035156 -34.253906 67.679688 -29.726562 65.859375 -25.15625 C 64.035156 -20.582031 61.679688 -16.367188 58.796875 -12.515625 C 55.921875 -8.660156 52.515625 -5.566406 48.578125 -3.234375 C 44.640625 -0.910156 40.132812 0.25 35.0625 0.25 Z M 35.0625 0.25 "/></g></g><g style="fill:#000000;fill-opacity:1;"><g transform="translate(758.20697, 184.705445)"><path style="stroke:none" d=""/></g></g><g style="fill:#000000;fill-opacity:1;"><g transform="translate(776.750291, 184.705445)"><path style="stroke:none" d="M 42.546875 -19.5625 C 43.222656 -19.5625 43.878906 -19.367188 44.515625 -18.984375 C 45.148438 -18.609375 45.597656 -18.039062 45.859375 -17.28125 C 46.109375 -16.425781 46.460938 -15.085938 46.921875 -13.265625 C 47.390625 -11.453125 47.816406 -9.71875 48.203125 -8.0625 C 48.585938 -6.414062 48.78125 -5.378906 48.78125 -4.953125 C 48.78125 -3.765625 48.097656 -3.085938 46.734375 -2.921875 C 45.378906 -2.835938 43.453125 -2.664062 40.953125 -2.40625 C 38.460938 -2.15625 35.753906 -1.898438 32.828125 -1.640625 C 29.910156 -1.390625 27.097656 -1.140625 24.390625 -0.890625 C 21.679688 -0.640625 19.394531 -0.425781 17.53125 -0.25 C 15.664062 -0.0820312 14.519531 0 14.09375 0 C 13.5 0 12.90625 -0.0820312 12.3125 -0.25 C 11.726562 -0.425781 11.179688 -0.722656 10.671875 -1.140625 C 9.398438 -2.492188 7.976562 -4.3125 6.40625 -6.59375 C 4.84375 -8.882812 3.640625 -10.796875 2.796875 -12.328125 C 2.535156 -12.828125 2.363281 -13.375 2.28125 -13.96875 C 2.195312 -14.5625 2.15625 -15.070312 2.15625 -15.5 C 2.15625 -15.832031 2.175781 -16.234375 2.21875 -16.703125 C 2.257812 -17.171875 2.28125 -17.40625 2.28125 -17.40625 C 2.625 -21.300781 3.175781 -25.640625 3.9375 -30.421875 C 4.695312 -35.203125 5.5625 -40.132812 6.53125 -45.21875 C 7.507812 -50.300781 8.523438 -55.253906 9.578125 -60.078125 C 10.640625 -64.898438 11.722656 -69.300781 12.828125 -73.28125 C 13.929688 -77.257812 14.988281 -80.5625 16 -83.1875 C 16.425781 -84.289062 17.316406 -84.84375 18.671875 -84.84375 C 19.429688 -84.84375 20.675781 -84.648438 22.40625 -84.265625 C 24.144531 -83.890625 25.96875 -83.445312 27.875 -82.9375 C 29.78125 -82.425781 31.285156 -81.960938 32.390625 -81.546875 C 33.492188 -81.117188 34.046875 -80.269531 34.046875 -79 C 34.046875 -78.832031 34.019531 -78.640625 33.96875 -78.421875 C 33.925781 -78.210938 33.90625 -78.109375 33.90625 -78.109375 C 32.132812 -71.847656 30.460938 -65.457031 28.890625 -58.9375 C 27.328125 -52.414062 25.953125 -46.335938 24.765625 -40.703125 C 23.578125 -35.078125 22.644531 -30.359375 21.96875 -26.546875 C 21.289062 -22.734375 20.953125 -20.40625 20.953125 -19.5625 C 20.953125 -18.539062 21.503906 -18.03125 22.609375 -18.03125 C 22.859375 -18.03125 23.785156 -18.113281 25.390625 -18.28125 C 27.003906 -18.457031 28.929688 -18.628906 31.171875 -18.796875 C 33.421875 -18.960938 35.601562 -19.128906 37.71875 -19.296875 C 39.84375 -19.472656 41.453125 -19.5625 42.546875 -19.5625 Z M 42.546875 -19.5625 "/></g></g><g style="fill:#000000;fill-opacity:1;"><g transform="translate(829.204995, 184.705445)"><path style="stroke:none" d="M 20.703125 -91.953125 C 22.734375 -91.953125 24.785156 -91.59375 26.859375 -90.875 C 28.929688 -90.15625 30.664062 -89.035156 32.0625 -87.515625 C 33.46875 -85.992188 34.171875 -83.960938 34.171875 -81.421875 C 34.171875 -78.035156 33.066406 -75.257812 30.859375 -73.09375 C 28.660156 -70.9375 25.65625 -69.859375 21.84375 -69.859375 C 18.207031 -69.859375 15.519531 -70.9375 13.78125 -73.09375 C 12.039062 -75.257812 11.171875 -77.78125 11.171875 -80.65625 C 11.171875 -82.851562 11.742188 -84.796875 12.890625 -86.484375 C 14.035156 -88.179688 15.285156 -89.582031 16.640625 -90.6875 C 17.828125 -91.53125 19.179688 -91.953125 20.703125 -91.953125 Z M 17.65625 -2.28125 C 17.40625 -0.84375 16.597656 -0.125 15.234375 -0.125 C 14.554688 -0.125 13.347656 -0.332031 11.609375 -0.75 C 9.878906 -1.175781 8.125 -1.644531 6.34375 -2.15625 C 4.570312 -2.664062 3.304688 -3.085938 2.546875 -3.421875 C 1.191406 -4.015625 0.515625 -5.035156 0.515625 -6.484375 C 0.515625 -8.597656 0.722656 -11.535156 1.140625 -15.296875 C 1.566406 -19.066406 2.140625 -23.21875 2.859375 -27.75 C 3.578125 -32.28125 4.378906 -36.8125 5.265625 -41.34375 C 6.160156 -45.875 7.03125 -50 7.875 -53.71875 C 8.71875 -57.445312 9.476562 -60.367188 10.15625 -62.484375 C 10.582031 -63.847656 11.597656 -64.53125 13.203125 -64.53125 C 13.796875 -64.53125 14.894531 -64.359375 16.5 -64.015625 C 18.113281 -63.671875 19.851562 -63.265625 21.71875 -62.796875 C 23.582031 -62.335938 25.109375 -61.851562 26.296875 -61.34375 C 27.484375 -60.925781 28.078125 -60.164062 28.078125 -59.0625 C 28.078125 -58.976562 28.050781 -58.804688 28 -58.546875 C 27.957031 -58.296875 27.9375 -58.171875 27.9375 -58.171875 C 26.925781 -54.023438 25.910156 -49.492188 24.890625 -44.578125 C 23.878906 -39.671875 22.90625 -34.695312 21.96875 -29.65625 C 21.039062 -24.613281 20.195312 -19.722656 19.4375 -14.984375 C 18.675781 -10.242188 18.082031 -6.007812 17.65625 -2.28125 Z M 17.65625 -2.28125 "/></g></g><g style="fill:#000000;fill-opacity:1;"><g transform="translate(856.51192, 184.705445)"><path style="stroke:none" d="M 3.421875 -40.265625 C 3.421875 -42.804688 3.953125 -45.515625 5.015625 -48.390625 C 6.078125 -51.273438 7.515625 -53.984375 9.328125 -56.515625 C 11.148438 -59.054688 13.242188 -61.128906 15.609375 -62.734375 C 17.984375 -64.347656 20.484375 -65.15625 23.109375 -65.15625 C 24.472656 -65.15625 26.316406 -64.898438 28.640625 -64.390625 C 30.972656 -63.890625 33.40625 -63.171875 35.9375 -62.234375 C 38.476562 -61.304688 40.910156 -60.207031 43.234375 -58.9375 C 45.566406 -57.664062 47.453125 -56.203125 48.890625 -54.546875 C 50.335938 -52.898438 51.0625 -51.144531 51.0625 -49.28125 C 51.0625 -47.675781 50.59375 -45.8125 49.65625 -43.6875 C 48.726562 -41.570312 48.007812 -40.175781 47.5 -39.5 C 46.988281 -38.820312 46.4375 -38.351562 45.84375 -38.09375 C 45.257812 -37.84375 44.671875 -37.675781 44.078125 -37.59375 L 34.546875 -37.59375 C 33.953125 -37.59375 33.484375 -37.78125 33.140625 -38.15625 C 32.804688 -38.539062 32.640625 -38.90625 32.640625 -39.25 C 32.640625 -39.757812 32.847656 -40.710938 33.265625 -42.109375 C 33.691406 -43.503906 33.90625 -44.835938 33.90625 -46.109375 C 33.90625 -47.796875 33.566406 -49.082031 32.890625 -49.96875 C 32.210938 -50.863281 31.410156 -51.3125 30.484375 -51.3125 C 29.046875 -51.3125 27.710938 -50.675781 26.484375 -49.40625 C 25.253906 -48.132812 24.257812 -46.671875 23.5 -45.015625 C 22.738281 -43.367188 22.359375 -41.953125 22.359375 -40.765625 C 22.359375 -38.992188 23.160156 -37.578125 24.765625 -36.515625 C 26.378906 -35.453125 28.390625 -34.5 30.796875 -33.65625 C 33.210938 -32.8125 35.625 -31.835938 38.03125 -30.734375 C 40.445312 -29.640625 42.457031 -28.222656 44.0625 -26.484375 C 45.675781 -24.742188 46.484375 -22.394531 46.484375 -19.4375 C 46.484375 -16.382812 45.550781 -13.351562 43.6875 -10.34375 C 41.832031 -7.34375 39.25 -4.847656 35.9375 -2.859375 C 32.632812 -0.867188 28.828125 0.125 24.515625 0.125 C 21.972656 0.125 19.175781 -0.234375 16.125 -0.953125 C 13.082031 -1.671875 10.25 -2.601562 7.625 -3.75 C 5 -4.894531 3.007812 -6.054688 1.65625 -7.234375 C 1.0625 -7.742188 0.675781 -8.207031 0.5 -8.625 C 0.332031 -9.050781 0.25 -9.4375 0.25 -9.78125 C 0.25 -10.375 0.394531 -11.285156 0.6875 -12.515625 C 0.988281 -13.742188 1.347656 -15.015625 1.765625 -16.328125 C 2.191406 -17.640625 2.578125 -18.675781 2.921875 -19.4375 C 3.347656 -20.445312 3.941406 -20.953125 4.703125 -20.953125 C 5.117188 -20.953125 5.453125 -20.867188 5.703125 -20.703125 C 5.960938 -20.535156 6.132812 -20.453125 6.21875 -20.453125 C 8.425781 -19.265625 10.96875 -18.015625 13.84375 -16.703125 C 16.71875 -15.390625 19.46875 -14.734375 22.09375 -14.734375 C 23.539062 -14.734375 24.851562 -14.988281 26.03125 -15.5 C 27.21875 -16.007812 27.851562 -16.769531 27.9375 -17.78125 C 27.9375 -18.882812 27.109375 -19.835938 25.453125 -20.640625 C 23.804688 -21.441406 21.773438 -22.304688 19.359375 -23.234375 C 16.953125 -24.171875 14.519531 -25.335938 12.0625 -26.734375 C 9.613281 -28.128906 7.5625 -29.90625 5.90625 -32.0625 C 4.25 -34.226562 3.421875 -36.960938 3.421875 -40.265625 Z M 3.421875 -40.265625 "/></g></g><g style="fill:#000000;fill-opacity:1;"><g transform="translate(907.82355, 184.705445)"><path style="stroke:none" d="M 43.828125 -50.671875 C 43.566406 -49.148438 42.546875 -48.390625 40.765625 -48.390625 L 31.5 -48.390625 C 30.738281 -48.390625 30.144531 -48.175781 29.71875 -47.75 C 29.300781 -47.332031 29.003906 -46.785156 28.828125 -46.109375 C 27.816406 -41.367188 26.972656 -37.15625 26.296875 -33.46875 C 25.617188 -29.78125 25.28125 -27.09375 25.28125 -25.40625 C 25.28125 -22.78125 25.804688 -20.660156 26.859375 -19.046875 C 27.921875 -17.441406 29.640625 -16.046875 32.015625 -14.859375 C 32.941406 -14.429688 33.40625 -13.710938 33.40625 -12.703125 C 33.40625 -12.359375 33.320312 -12.019531 33.15625 -11.6875 C 32.476562 -10.25 31.566406 -8.554688 30.421875 -6.609375 C 29.273438 -4.660156 28.066406 -2.96875 26.796875 -1.53125 C 25.953125 -0.675781 24.976562 -0.25 23.875 -0.25 C 23.539062 -0.25 23.222656 -0.289062 22.921875 -0.375 C 22.628906 -0.46875 22.484375 -0.515625 22.484375 -0.515625 C 17.316406 -2.203125 13.332031 -5.054688 10.53125 -9.078125 C 7.738281 -13.097656 6.34375 -17.523438 6.34375 -22.359375 C 6.34375 -24.390625 6.507812 -26.78125 6.84375 -29.53125 C 7.1875 -32.28125 7.613281 -34.96875 8.125 -37.59375 C 8.632812 -40.21875 9.054688 -42.421875 9.390625 -44.203125 C 9.734375 -45.984375 9.90625 -46.957031 9.90625 -47.125 C 9.90625 -48.132812 9.441406 -48.640625 8.515625 -48.640625 L 7.234375 -48.640625 C 5.796875 -48.640625 4.992188 -49.445312 4.828125 -51.0625 L 4.828125 -56.265625 C 4.828125 -57.203125 4.828125 -58.113281 4.828125 -59 C 4.828125 -59.882812 4.867188 -60.664062 4.953125 -61.34375 C 5.035156 -62.019531 5.285156 -62.613281 5.703125 -63.125 C 6.128906 -63.632812 6.769531 -63.929688 7.625 -64.015625 L 12.0625 -64.390625 C 12.820312 -64.484375 13.367188 -64.757812 13.703125 -65.21875 C 14.046875 -65.6875 14.304688 -66.21875 14.484375 -66.8125 C 15.578125 -70.789062 16.65625 -74.429688 17.71875 -77.734375 C 18.78125 -81.035156 19.609375 -83.488281 20.203125 -85.09375 C 20.617188 -86.28125 21.460938 -86.875 22.734375 -86.875 C 23.921875 -86.875 25.359375 -86.660156 27.046875 -86.234375 C 28.742188 -85.816406 30.414062 -85.332031 32.0625 -84.78125 C 33.71875 -84.226562 35.054688 -83.695312 36.078125 -83.1875 C 37.171875 -82.769531 37.71875 -82.050781 37.71875 -81.03125 C 37.71875 -80.53125 37.523438 -79.578125 37.140625 -78.171875 C 36.765625 -76.773438 36.300781 -75.269531 35.75 -73.65625 C 35.195312 -72.050781 34.726562 -70.570312 34.34375 -69.21875 C 33.96875 -67.863281 33.78125 -66.976562 33.78125 -66.5625 C 33.78125 -65.539062 34.289062 -64.945312 35.3125 -64.78125 C 36.582031 -64.78125 37.851562 -64.78125 39.125 -64.78125 C 40.394531 -64.78125 41.453125 -64.738281 42.296875 -64.65625 C 43.140625 -64.570312 43.726562 -64.234375 44.0625 -63.640625 C 44.40625 -63.046875 44.578125 -62.410156 44.578125 -61.734375 L 44.578125 -60.71875 C 44.578125 -59.101562 44.492188 -57.34375 44.328125 -55.4375 C 44.160156 -53.53125 43.992188 -51.941406 43.828125 -50.671875 Z M 43.828125 -50.671875 "/></g></g><g clip-rule="nonzero" clip-path="url(#cc4a150412)"><g clip-rule="nonzero" clip-path="url(#56506f745b)"><path style=" stroke:none;fill-rule:nonzero;fill:#000000;fill-opacity:1;" d="M 454.535156 356.179688 L 524.886719 356.179688 L 524.886719 441.644531 L 454.535156 441.644531 Z M 454.535156 356.179688 "/></g></g><g clip-rule="nonzero" clip-path="url(#5e8c2f7e05)"><g clip-rule="nonzero" clip-path="url(#a39e67f587)"><path style=" stroke:none;fill-rule:nonzero;fill:#000000;fill-opacity:1;" d="M 455.394531 474.199219 L 525.746094 474.199219 L 525.746094 559.664062 L 455.394531 559.664062 Z M 455.394531 474.199219 "/></g></g><g clip-rule="nonzero" clip-path="url(#ae2c8c349d)"><g clip-rule="nonzero" clip-path="url(#a3aaba3c75)"><path style=" stroke:none;fill-rule:nonzero;fill:#000000;fill-opacity:1;" d="M 456.253906 592.214844 L 526.605469 592.214844 L 526.605469 677.679688 L 456.253906 677.679688 Z M 456.253906 592.214844 "/></g></g><g clip-rule="nonzero" clip-path="url(#766a887ca3)"><g clip-rule="nonzero" clip-path="url(#8222f8d6de)"><path style=" stroke:none;fill-rule:nonzero;fill:#000000;fill-opacity:1;" d="M 548.699219 236.398438 L 906.085938 236.398438 L 906.085938 337.050781 L 548.699219 337.050781 Z M 548.699219 236.398438 "/></g></g><g clip-rule="nonzero" clip-path="url(#f1540ce042)"><g clip-rule="nonzero" clip-path="url(#da0d89649d)"><path style=" stroke:none;fill-rule:nonzero;fill:#000000;fill-opacity:1;" d="M 536.773438 359.699219 L 897.574219 359.699219 L 897.574219 460.425781 L 536.773438 460.425781 Z M 536.773438 359.699219 "/></g></g><g clip-rule="nonzero" clip-path="url(#a3279092ad)"><g clip-rule="nonzero" clip-path="url(#d7ef6b1f95)"><path style=" stroke:none;fill-rule:nonzero;fill:#000000;fill-opacity:1;" d="M 567.074219 500.324219 L 910.105469 500.324219 L 910.105469 554.699219 L 567.074219 554.699219 Z M 567.074219 500.324219 "/></g></g><g clip-rule="nonzero" clip-path="url(#f073f043cf)"><g clip-rule="nonzero" clip-path="url(#c848c3ada4)"><path style=" stroke:none;fill-rule:nonzero;fill:#000000;fill-opacity:1;" d="M 556.050781 600 L 908.660156 600 L 908.660156 658.199219 L 556.050781 658.199219 Z M 556.050781 600 "/></g></g></g></svg>